<svg width="24" height="24" viewBox="0 0 24 24" fill="none" xmlns="http://www.w3.org/2000/svg">
<path d="M18.9556 6.176C17.6518 5.62533 16.2671 5.224 14.8218 5C14.6399 5.28933 14.4377 5.68133 14.2962 5.98933C12.759 5.78399 11.2328 5.78399 9.71672 5.98933C9.57521 5.68133 9.36295 5.28933 9.19112 5C7.73573 5.224 6.35105 5.62533 5.05634 6.176C2.4386 9.74132 1.73111 13.2226 2.08485 16.6573C3.82327 17.8239 5.50106 18.5333 7.14953 19C7.55382 18.496 7.91768 17.9546 8.231 17.3853C7.63468 17.18 7.06868 16.928 6.5229 16.6293C6.6644 16.536 6.8059 16.4333 6.93729 16.3307C10.2322 17.7213 13.801 17.7213 17.0555 16.3307C17.197 16.4333 17.3284 16.536 17.4699 16.6293C16.9241 16.928 16.3581 17.18 15.7618 17.3853C16.0751 17.9546 16.439 18.496 16.8432 19C18.4907 18.5333 20.1786 17.8239 21.9079 16.6573C22.3425 12.6813 21.2196 9.22802 18.9556 6.176ZM8.68581 14.5386C7.6953 14.5386 6.88674 13.708 6.88674 12.6907C6.88674 11.6733 7.67509 10.8426 8.68581 10.8426C9.68639 10.8426 10.505 11.6733 10.4848 12.6907C10.4848 13.708 9.68639 14.5386 8.68581 14.5386ZM15.3272 14.5386C14.3367 14.5386 13.5271 13.708 13.5271 12.6907C13.5271 11.6733 14.3164 10.8426 15.3272 10.8426C16.3278 10.8426 17.1464 11.6733 17.1262 12.6907C17.1262 13.708 16.3379 14.5386 15.3272 14.5386Z" fill="current"/>
</svg>
