<svg width="24" height="24" viewBox="0 0 24 24" fill="none" xmlns="http://www.w3.org/2000/svg">
<path fill-rule="evenodd" clip-rule="evenodd" d="M7.29289 11.2929C7.68342 10.9024 8.31658 10.9024 8.70711 11.2929L12 14.5858L15.2929 11.2929C15.6834 10.9024 16.3166 10.9024 16.7071 11.2929C17.0976 11.6834 17.0976 12.3166 16.7071 12.7071L12.7071 16.7071C12.3166 17.0976 11.6834 17.0976 11.2929 16.7071L7.29289 12.7071C6.90237 12.3166 6.90237 11.6834 7.29289 11.2929Z" fill="current"/>
<path fill-rule="evenodd" clip-rule="evenodd" d="M12 4C12.5523 4 13 4.44772 13 5V16C13 16.5523 12.5523 17 12 17C11.4477 17 11 16.5523 11 16V5C11 4.44772 11.4477 4 12 4Z" fill="current"/>
<path fill-rule="evenodd" clip-rule="evenodd" d="M19 20C19 20.5523 18.5523 21 18 21H6C5.44771 21 5 20.5523 5 20C5 19.4477 5.44771 19 6 19L18 19C18.5523 19 19 19.4477 19 20Z" fill="current"/>
</svg>
