<svg width="24" height="24" viewBox="0 0 24 24" fill="none" xmlns="http://www.w3.org/2000/svg">
<rect x="1" y="1" width="22" height="22" rx="11" fill="white" stroke="black" stroke-width="2"/>
<path d="M10.25 8C9.83579 8 9.5 8.33579 9.5 8.75V15.25C9.5 15.6642 9.83579 16 10.25 16C10.6642 16 11 15.6642 11 15.25V8.75C11 8.33579 10.6642 8 10.25 8Z" fill="black"/>
<path d="M13.75 8C13.3358 8 13 8.33579 13 8.75V15.25C13 15.6642 13.3358 16 13.75 16C14.1642 16 14.5 15.6642 14.5 15.25V8.75C14.5 8.33579 14.1642 8 13.75 8Z" fill="black"/>
</svg>
