<svg fill="none" viewBox="0 0 16 16" xmlns="http://www.w3.org/2000/svg">
<g clip-path="url(#clip0_1_2)">
<rect width="16" height="16" fill="#fff"/>
<mask id="a" x="0" y="0" width="16" height="16" style="mask-type:alpha" maskUnits="userSpaceOnUse">
<rect width="16" height="16" fill="#D9D9D9"/>
</mask>
<g mask="url(#a)">
<path d="m7.3333 11.333h1.3333v-4h-1.3333v4zm0.66667-5.3333c0.18889 0 0.34722-0.06389 0.475-0.19166 0.12778-0.12778 0.19166-0.28612 0.19166-0.475 0-0.18889-0.06388-0.34723-0.19166-0.475-0.12778-0.12778-0.28611-0.19167-0.475-0.19167s-0.34722 0.06389-0.475 0.19167c-0.12778 0.12777-0.19167 0.28611-0.19167 0.475 0 0.18888 0.06389 0.34722 0.19167 0.475 0.12778 0.12777 0.28611 0.19166 0.475 0.19166zm0 8.6667c-0.92222 0-1.7889-0.175-2.6-0.525s-1.5167-0.825-2.1167-1.425-1.075-1.3056-1.425-2.1167c-0.35-0.81111-0.525-1.6778-0.525-2.6s0.175-1.7889 0.525-2.6 0.825-1.5167 1.425-2.1167 1.3056-1.075 2.1167-1.425 1.6778-0.525 2.6-0.525 1.7889 0.175 2.6 0.525c0.8111 0.35 1.5167 0.825 2.1167 1.425s1.075 1.3056 1.425 2.1167 0.525 1.6778 0.525 2.6-0.175 1.7889-0.525 2.6c-0.35 0.8111-0.825 1.5167-1.425 2.1167s-1.3056 1.075-2.1167 1.425c-0.81111 0.35-1.6778 0.525-2.6 0.525zm0-1.3334c1.4889 0 2.75-0.5166 3.7833-1.55 1.0334-1.0333 1.55-2.2944 1.55-3.7833s-0.5166-2.75-1.55-3.7833c-1.0333-1.0333-2.2944-1.55-3.7833-1.55s-2.75 0.51667-3.7833 1.55c-1.0333 1.0333-1.55 2.2944-1.55 3.7833s0.51666 2.75 1.55 3.7833c1.0333 1.0334 2.2944 1.55 3.7833 1.55z" fill="#808080"/>
</g>
</g>
</svg>