<svg width="24" height="24" viewBox="0 0 24 24" fill="none" xmlns="http://www.w3.org/2000/svg">
<path d="M10.9997 6H12.4997V17H10.9997V6Z" fill="current"/>
<path d="M10.9997 6H12.4997V18H10.9997V6Z" fill="current"/>
<path d="M17.9997 11.25L17.9997 12.75L5.99966 12.75V11.25L17.9997 11.25Z" fill="current"/>
<path d="M13.898 6H9.60129C9.13709 6 8.92345 5.42247 9.2759 5.12037L11.4243 3.27891C11.6115 3.11842 11.8878 3.11841 12.0751 3.27891L14.2234 5.12037C14.5759 5.42247 14.3622 6 13.898 6Z" fill="current"/>
<path d="M9.60129 18H13.898C14.3622 18 14.5759 18.5775 14.2234 18.8796L12.0751 20.7211C11.8878 20.8816 11.6115 20.8816 11.4243 20.7211L9.2759 18.8796C8.92345 18.5775 9.13709 18 9.60129 18Z" fill="current"/>
<path d="M17.9997 14.1484V9.85163C17.9997 9.38743 18.5772 9.17378 18.8793 9.52623L20.7208 11.6746C20.8812 11.8618 20.8812 12.1382 20.7208 12.3254L18.8793 14.4738C18.5772 14.8262 17.9997 14.6126 17.9997 14.1484Z" fill="current"/>
<path d="M5.99966 9.85163L5.99966 14.1484C5.99966 14.6126 5.42214 14.8262 5.12004 14.4738L3.27857 12.3254C3.11808 12.1382 3.11808 11.8618 3.27857 11.6746L5.12004 9.52623C5.42214 9.17378 5.99966 9.38743 5.99966 9.85163Z" fill="current"/>
</svg>
