<svg width="24" height="24" viewBox="0 0 24 24" fill="none" xmlns="http://www.w3.org/2000/svg">
<g clip-path="url(#clip0_7235_19661)">
<path fill-rule="evenodd" clip-rule="evenodd" d="M7.42497 4.23537C9.15332 3.23688 11.162 2.83435 13.1416 3.08979C15.1213 3.34522 16.962 4.24445 18.3803 5.64896C19.7986 7.05346 20.7157 8.88533 20.9905 10.8624C21.0665 11.4094 20.6847 11.9145 20.1376 11.9905C19.5906 12.0665 19.0855 11.6847 19.0095 11.1377C18.7952 9.59514 18.0796 8.16588 16.973 7.07006C15.8664 5.97424 14.4302 5.27264 12.8857 5.07334C11.3412 4.87405 9.77393 5.18811 8.42544 5.96715C7.53816 6.47974 6.77797 7.17492 6.19115 8.00001H8C8.55229 8.00001 9 8.44773 9 9.00001C9 9.5523 8.55229 10 8 10H4.52237C4.50722 10.0004 4.49203 10.0004 4.47682 10H4C3.44772 10 3 9.5523 3 9.00001V5.00001C3 4.44773 3.44772 4.00001 4 4.00001C4.55229 4.00001 5 4.44773 5 5.00001V6.27287C5.67856 5.46249 6.4976 4.77112 7.42497 4.23537Z" fill="current"/>
<path fill-rule="evenodd" clip-rule="evenodd" d="M3.86235 12.0095C4.40938 11.9335 4.91446 12.3153 4.99048 12.8624C5.20485 14.4049 5.92043 15.8341 7.02701 16.93C8.13358 18.0258 9.56976 18.7274 11.1143 18.9267C12.6588 19.126 14.2261 18.8119 15.5746 18.0329C16.4618 17.5203 17.222 16.8251 17.8088 16H16C15.4477 16 15 15.5523 15 15C15 14.4477 15.4477 14 16 14H19.4776C19.4928 13.9997 19.508 13.9997 19.5232 14H20C20.5523 14 21 14.4477 21 15V19C21 19.5523 20.5523 20 20 20C19.4477 20 19 19.5523 19 19V17.7272C18.3214 18.5375 17.5024 19.2289 16.575 19.7647C14.8467 20.7631 12.838 21.1657 10.8584 20.9102C8.87873 20.6548 7.038 19.7556 5.61972 18.3511C4.20143 16.9466 3.28427 15.1147 3.00952 13.1377C2.9335 12.5906 3.31532 12.0856 3.86235 12.0095Z" fill="current"/>
</g>
<defs>
<clipPath id="clip0_7235_19661">
<rect width="24" height="24" fill="white"/>
</clipPath>
</defs>
</svg>
