<svg width="24" height="24" viewBox="0 0 24 24" fill="none" xmlns="http://www.w3.org/2000/svg">
<path d="M22.2806 9.97032L14.7806 2.47032C14.6758 2.36536 14.5422 2.29386 14.3967 2.26484C14.2512 2.23582 14.1004 2.2506 13.9633 2.3073C13.8263 2.36399 13.7091 2.46007 13.6266 2.58337C13.5441 2.70667 13.5001 2.85166 13.5 3V6.78282C11.0681 6.99094 8.38219 8.18157 6.1725 10.0556C3.51188 12.3131 1.85532 15.2222 1.5075 18.2466C1.48032 18.4817 1.528 18.7194 1.64375 18.9259C1.75949 19.1323 1.93741 19.297 2.15218 19.3965C2.36695 19.496 2.60764 19.5252 2.83997 19.48C3.07231 19.4348 3.28447 19.3175 3.44625 19.1447C4.4775 18.0469 8.14688 14.5753 13.5 14.2697V18C13.5001 18.1483 13.5441 18.2933 13.6266 18.4166C13.7091 18.5399 13.8263 18.636 13.9633 18.6927C14.1004 18.7494 14.2512 18.7642 14.3967 18.7352C14.5422 18.7061 14.6758 18.6346 14.7806 18.5297L22.2806 11.0297C22.4209 10.8891 22.4997 10.6986 22.4997 10.5C22.4997 10.3014 22.4209 10.1109 22.2806 9.97032ZM15 16.1897V13.5C15 13.3011 14.921 13.1103 14.7803 12.9697C14.6397 12.829 14.4489 12.75 14.25 12.75C11.6175 12.75 9.05344 13.4372 6.62907 14.7938C5.39433 15.4877 4.24389 16.322 3.20063 17.28C3.74438 15.045 5.115 12.9197 7.14282 11.1994C9.31969 9.35344 11.9766 8.25 14.25 8.25C14.4489 8.25 14.6397 8.17099 14.7803 8.03033C14.921 7.88968 15 7.69892 15 7.5V4.81125L20.6897 10.5L15 16.1897Z" fill="#D9D9D9"/>
</svg>
