<svg xmlns="http://www.w3.org/2000/svg" xmlns:xlink="http://www.w3.org/1999/xlink" width="24px" height="24px" viewBox="0 0 24 24" version="1.1">
<g id="surface1">
<path style=" stroke:none;fill-rule:nonzero;fill:rgb(0%,0%,0%);fill-opacity:1;" d="M 11.4375 5.425781 C 11.558594 5.425781 11.617188 5.355469 11.648438 5.246094 C 11.960938 3.566406 11.941406 3.527344 13.6875 3.195312 C 13.808594 3.175781 13.878906 3.105469 13.878906 2.984375 C 13.878906 2.863281 13.808594 2.792969 13.6875 2.773438 C 11.949219 2.421875 12 2.382812 11.648438 0.726562 C 11.617188 0.613281 11.558594 0.542969 11.4375 0.542969 C 11.316406 0.542969 11.257812 0.613281 11.226562 0.726562 C 10.875 2.382812 10.933594 2.421875 9.1875 2.773438 C 9.078125 2.792969 8.996094 2.863281 8.996094 2.984375 C 8.996094 3.105469 9.078125 3.175781 9.1875 3.195312 C 10.933594 3.546875 10.914062 3.566406 11.226562 5.246094 C 11.257812 5.355469 11.316406 5.425781 11.4375 5.425781 Z M 6.574219 12.335938 C 6.765625 12.335938 6.898438 12.214844 6.917969 12.035156 C 7.277344 9.351562 7.371094 9.351562 10.140625 8.820312 C 10.324219 8.789062 10.453125 8.671875 10.453125 8.480469 C 10.453125 8.296875 10.324219 8.167969 10.140625 8.136719 C 7.371094 7.757812 7.269531 7.664062 6.917969 4.933594 C 6.898438 4.753906 6.765625 4.621094 6.574219 4.621094 C 6.394531 4.621094 6.265625 4.753906 6.246094 4.945312 C 5.914062 7.636719 5.773438 7.625 3.019531 8.136719 C 2.839844 8.179688 2.707031 8.296875 2.707031 8.480469 C 2.707031 8.679688 2.839844 8.789062 3.058594 8.820312 C 5.792969 9.261719 5.914062 9.332031 6.246094 12.015625 C 6.265625 12.214844 6.394531 12.335938 6.574219 12.335938 Z M 13.386719 23.457031 C 13.648438 23.457031 13.839844 23.265625 13.886719 22.992188 C 14.601562 17.488281 15.375 16.65625 20.820312 16.054688 C 21.101562 16.023438 21.292969 15.8125 21.292969 15.550781 C 21.292969 15.289062 21.101562 15.089844 20.820312 15.046875 C 15.375 14.445312 14.601562 13.613281 13.886719 8.109375 C 13.839844 7.835938 13.648438 7.65625 13.386719 7.65625 C 13.125 7.65625 12.933594 7.835938 12.894531 8.109375 C 12.179688 13.613281 11.398438 14.445312 5.964844 15.046875 C 5.671875 15.089844 5.480469 15.289062 5.480469 15.550781 C 5.480469 15.8125 5.671875 16.023438 5.964844 16.054688 C 11.386719 16.765625 12.140625 17.5 12.894531 22.992188 C 12.933594 23.265625 13.125 23.457031 13.386719 23.457031 Z M 13.386719 23.457031 "/>
</g>
</svg>
