<svg width="24" height="24" viewBox="0 0 24 24" fill="none" xmlns="http://www.w3.org/2000/svg">
<path d="M21 5.77835C20.325 6.08763 19.65 6.31959 18.9 6.39691C19.65 5.93299 20.25 5.15979 20.55 4.30928C19.8 4.7732 19.05 5.08247 18.225 5.23711C17.55 4.46392 16.575 4 15.525 4C13.5 4 11.85 5.70103 11.85 7.78866C11.85 8.09794 11.85 8.40722 11.925 8.63917C8.775 8.48454 6.075 6.93814 4.275 4.61856C3.9 5.23711 3.75 5.85567 3.75 6.55155C3.75 7.86598 4.425 9.02577 5.4 9.72165C4.8 9.72165 4.2 9.56701 3.75 9.25773C3.75 9.25773 3.75 9.25773 3.75 9.33505C3.75 11.1907 5.025 12.7371 6.675 13.0464C6.375 13.1237 6.075 13.201 5.7 13.201C5.475 13.201 5.25 13.201 5.025 13.1237C5.475 14.6701 6.825 15.7526 8.475 15.7526C7.2 16.7577 5.625 17.3763 3.9 17.3763C3.6 17.3763 3.3 17.3763 3 17.299C4.65 18.3814 6.6 19 8.625 19C15.45 19 19.125 13.201 19.125 8.17526C19.125 8.02062 19.125 7.86598 19.125 7.71134C19.875 7.1701 20.475 6.47423 21 5.77835Z" fill="current"/>
</svg>
