<svg width="16" height="16" viewBox="0 0 16 16" fill="none" xmlns="http://www.w3.org/2000/svg">
<g clip-path="url(#clip0_7257_19817)">
<path fill-rule="evenodd" clip-rule="evenodd" d="M8 16C12.4183 16 16 12.4183 16 8C16 3.58172 12.4183 0 8 0C3.58172 0 0 3.58172 0 8C0 12.4183 3.58172 16 8 16ZM8 4C7.44772 4 7 4.44772 7 5V8C7 8.55228 7.44772 9 8 9C8.55228 9 9 8.55228 9 8V5C9 4.44772 8.55228 4 8 4ZM8 10C7.44772 10 7 10.4477 7 11C7 11.5523 7.44772 12 8 12C8.55228 12 9 11.5523 9 11C9 10.4477 8.55228 10 8 10Z" fill="current"/>
</g>
<defs>
<clipPath id="clip0_7257_19817">
<rect width="16" height="16" fill="white"/>
</clipPath>
</defs>
</svg>
