<svg width="16" height="16" viewBox="0 0 16 16" fill="black" xmlns="http://www.w3.org/2000/svg">
    <path
        d="M7.41421 0.707078C7.80474 0.316554 8.4379 0.316553 8.82843 0.707077L11.4142 3.29286C11.8047 3.68339 11.8047 4.31655 11.4142 4.70708L10.7071 5.41419C10.3166 5.80471 9.68342 5.80471 9.29289 5.41419L6.70711 2.8284C6.31658 2.43787 6.31658 1.80471 6.70711 1.41418L7.41421 0.707078Z" />
    <path
        d="M5.76788 3.64641C5.37736 3.25589 4.74419 3.25589 4.35367 3.64641L3.64656 4.35352C3.25604 4.74404 3.25604 5.3772 3.64656 5.76773L13.2323 15.3535C13.6229 15.744 14.256 15.744 14.6466 15.3535L15.3537 14.6464C15.7442 14.2559 15.7442 13.6227 15.3537 13.2322L5.76788 3.64641Z" />
    <path
        d="M0.5 14C0.223858 14 0 14.2238 0 14.5V15.5C0 15.7761 0.223858 16 0.5 16H7.5C7.77614 16 8 15.7761 8 15.5V14.5C8 14.2238 7.77614 14 7.5 14H0.5Z" />
    <path
        d="M2.82843 6.70708C2.4379 6.31655 1.80474 6.31655 1.41421 6.70708L0.707107 7.41418C0.316583 7.80471 0.316582 8.43787 0.707107 8.8284L3.29289 11.4142C3.68342 11.8047 4.31658 11.8047 4.70711 11.4142L5.41421 10.7071C5.80474 10.3166 5.80474 9.68339 5.41421 9.29286L2.82843 6.70708Z" />
</svg>