<svg width="16" height="16" viewBox="0 0 16 16" fill="none" xmlns="http://www.w3.org/2000/svg">
  <path
    d="M3.5 0H12.5C13.425 0.0103946 14.3092 0.382481 14.9634 1.03662C15.6175 1.69076 15.9896 2.57497 16 3.5V12.5C15.9896 13.425 15.6175 14.3092 14.9634 14.9634C14.3092 15.6175 13.425 15.9896 12.5 16H3.5C2.57497 15.9896 1.69076 15.6175 1.03662 14.9634C0.382481 14.3092 0.0103946 13.425 0 12.5L0 3.5C0.0103946 2.57497 0.382481 1.69076 1.03662 1.03662C1.69076 0.382481 2.57497 0.0103946 3.5 0V0Z"
    fill="white" />
  <path d="M13 3L8.7 6.1L9.5 4.3L13 3Z" fill="#E17726" stroke="#E17726" stroke-width="0.25" stroke-linecap="round"
    stroke-linejoin="round" />
  <path d="M3 3L7.3 6.2L6.5 4.3L3 3Z" fill="#E27625" stroke="#E27625" stroke-width="0.25" stroke-linecap="round"
    stroke-linejoin="round" />
  <path d="M11.4 10.2L10.3 12L12.7 12.7L13.4 10.4L11.4 10.2Z" fill="#E27625" stroke="#E27625" stroke-width="0.25"
    stroke-linecap="round" stroke-linejoin="round" />
  <path d="M2.6 10.3L3.3 12.6L5.7 12L4.6 10.3H2.6Z" fill="#E27625" stroke="#E27625" stroke-width="0.25"
    stroke-linecap="round" stroke-linejoin="round" />
  <path d="M5.6 7.3L4.9 8.3L7.3 8.4V5.9L5.6 7.3Z" fill="#E27625" stroke="#E27625" stroke-width="0.25"
    stroke-linecap="round" stroke-linejoin="round" />
  <path d="M10.4 7.3L8.7 5.9V8.5L11.1 8.4L10.4 7.3Z" fill="#E27625" stroke="#E27625" stroke-width="0.25"
    stroke-linecap="round" stroke-linejoin="round" />
  <path d="M5.7 12L7.2 11.3L5.9 10.3L5.7 12Z" fill="#E27625" stroke="#E27625" stroke-width="0.25" stroke-linecap="round"
    stroke-linejoin="round" />
  <path d="M8.8 11.3L10.3 12L10.1 10.3L8.8 11.3Z" fill="#E27625" stroke="#E27625" stroke-width="0.25"
    stroke-linecap="round" stroke-linejoin="round" />
  <path d="M10.3 12L8.8 11.3L8.9 12.2V12.6L10.3 12Z" fill="#D5BFB2" stroke="#D5BFB2" stroke-width="0.25"
    stroke-linecap="round" stroke-linejoin="round" />
  <path d="M5.7 12L7.1 12.6V12.2L7.2 11.3L5.7 12Z" fill="#D5BFB2" stroke="#D5BFB2" stroke-width="0.25"
    stroke-linecap="round" stroke-linejoin="round" />
  <path d="M7.1 9.7L5.9 9.3L6.8 8.9L7.1 9.7Z" fill="#233447" stroke="#233447" stroke-width="0.25" stroke-linecap="round"
    stroke-linejoin="round" />
  <path d="M8.9 9.7L9.3 9L10.2 9.4L8.9 9.7Z" fill="#233447" stroke="#233447" stroke-width="0.25" stroke-linecap="round"
    stroke-linejoin="round" />
  <path d="M5.7 12L5.9 10.3H4.5L5.7 12Z" fill="#CC6228" stroke="#CC6228" stroke-width="0.25" stroke-linecap="round"
    stroke-linejoin="round" />
  <path d="M10.1 10.2L10.3 11.9L11.4 10.2H10.1Z" fill="#CC6228" stroke="#CC6228" stroke-width="0.25"
    stroke-linecap="round" stroke-linejoin="round" />
  <path d="M11.1 8.4L8.7 8.5L8.9 9.7L9.3 9L10.2 9.4L11.1 8.4Z" fill="#CC6228" stroke="#CC6228" stroke-width="0.25"
    stroke-linecap="round" stroke-linejoin="round" />
  <path d="M5.9 9.3L6.8 8.9L7.2 9.6L7.4 8.4H4.9L5.9 9.3Z" fill="#CC6228" stroke="#CC6228" stroke-width="0.25"
    stroke-linecap="round" stroke-linejoin="round" />
  <path d="M4.9 8.4L5.9 10.3V9.3L4.9 8.4Z" fill="#E27525" stroke="#E27525" stroke-width="0.25" stroke-linecap="round"
    stroke-linejoin="round" />
  <path d="M10.1 9.3V10.3L11.1 8.4L10.1 9.3Z" fill="#E27525" stroke="#E27525" stroke-width="0.25" stroke-linecap="round"
    stroke-linejoin="round" />
  <path d="M7.3 8.5L7.1 9.7L7.4 11.1L7.5 9.2L7.3 8.5Z" fill="#E27525" stroke="#E27525" stroke-width="0.25"
    stroke-linecap="round" stroke-linejoin="round" />
  <path d="M8.7 8.5L8.5 9.2L8.6 11.1L8.9 9.7L8.7 8.5Z" fill="#E27525" stroke="#E27525" stroke-width="0.25"
    stroke-linecap="round" stroke-linejoin="round" />
  <path d="M8.9 9.7L8.6 11.1L8.8 11.2L10.1 10.2V9.2L8.9 9.7Z" fill="#F5841F" stroke="#F5841F" stroke-width="0.25"
    stroke-linecap="round" stroke-linejoin="round" />
  <path d="M5.9 9.3V10.3L7.2 11.3L7.4 11.2L7.1 9.7L5.9 9.3Z" fill="#F5841F" stroke="#F5841F" stroke-width="0.25"
    stroke-linecap="round" stroke-linejoin="round" />
  <path d="M8.9 12.6V12.2L8.8 12.1H7.2L7.1 12.2V12.6L5.7 12L6.2 12.4L7.2 13.1H8.9L9.9 12.4L10.4 12L8.9 12.6Z"
    fill="#C0AC9D" stroke="#C0AC9D" stroke-width="0.25" stroke-linecap="round" stroke-linejoin="round" />
  <path d="M8.8 11.3L8.6 11.2H7.4L7.2 11.3L7.1 12.2L7.2 12.1H8.8L8.9 12.2L8.8 11.3Z" fill="#161616" stroke="#161616"
    stroke-width="0.25" stroke-linecap="round" stroke-linejoin="round" />
  <path d="M13.1 6.3L13.5 4.6L13 3L8.8 6L10.4 7.3L12.7 8L13.2 7.4L13 7.2L13.3 7L13 6.8L13.3 6.5L13.1 6.3Z"
    fill="#763E1A" stroke="#763E1A" stroke-width="0.25" stroke-linecap="round" stroke-linejoin="round" />
  <path d="M2.5 4.6L2.9 6.3L2.6 6.5L3 6.8L2.7 7L3 7.3L2.8 7.4L3.3 8L5.6 7.4L7.2 6L3 3L2.5 4.6Z" fill="#763E1A"
    stroke="#763E1A" stroke-width="0.25" stroke-linecap="round" stroke-linejoin="round" />
  <path d="M12.7 8L10.4 7.4L11.1 8.4L10.1 10.3H13.4L12.7 8Z" fill="#F5841F" stroke="#F5841F" stroke-width="0.25"
    stroke-linecap="round" stroke-linejoin="round" />
  <path d="M5.6 7.3L3.3 8L2.5 10.3H5.8L4.8 8.4L5.6 7.3Z" fill="#F5841F" stroke="#F5841F" stroke-width="0.25"
    stroke-linecap="round" stroke-linejoin="round" />
  <path d="M8.7 8.5L8.8 6L9.5 4.3H6.5L7.2 6L7.3 8.4L7.4 9.2V11.1H8.6V9.2L8.7 8.5Z" fill="#F5841F" stroke="#F5841F"
    stroke-width="0.25" stroke-linecap="round" stroke-linejoin="round" />
</svg>