<svg width="24" height="24" viewBox="0 0 24 24" fill="black" xmlns="http://www.w3.org/2000/svg">
  <path opacity="0.4"
    d="M12 24C9.62662 24 7.30654 23.2962 5.33315 21.9776C3.35976 20.6591 1.82169 18.7849 0.913443 16.5922C0.0051918 14.3995 -0.232448 11.9867 0.230574 9.65892C0.693597 7.33115 1.83649 5.19295 3.51472 3.51472C5.19295 1.83649 7.33114 0.693605 9.65891 0.230582C11.9867 -0.232441 14.3995 0.00519943 16.5922 0.913451C18.7849 1.8217 20.6591 3.35977 21.9776 5.33316C23.2962 7.30655 24 9.62663 24 12C23.9966 15.1815 22.7312 18.2318 20.4815 20.4815C18.2318 22.7312 15.1815 23.9966 12 24ZM12 2.00001C10.0222 2.00001 8.08879 2.5865 6.4443 3.68531C4.7998 4.78412 3.51808 6.34591 2.7612 8.17317C2.00433 10.0004 1.80629 12.0111 2.19215 13.9509C2.578 15.8907 3.5304 17.6725 4.92893 19.0711C6.32746 20.4696 8.10929 21.422 10.0491 21.8079C11.9889 22.1937 13.9996 21.9957 15.8268 21.2388C17.6541 20.4819 19.2159 19.2002 20.3147 17.5557C21.4135 15.9112 22 13.9778 22 12C21.9971 9.34873 20.9426 6.80689 19.0679 4.93215C17.1931 3.05742 14.6513 2.00292 12 2.00001Z" />
  <path
    d="M24 12H22C21.9971 9.34873 20.9426 6.80688 19.0679 4.93215C17.1931 3.05742 14.6513 2.00291 12 2V0C15.1815 0.00344108 18.2318 1.26883 20.4815 3.51852C22.7312 5.76821 23.9966 8.81846 24 12Z" />
</svg>