<svg viewBox="0 0 696 186" fill="none" xmlns="http://www.w3.org/2000/svg">
    <g clip-path="url(#clip0_7903_6847)">
        <path fill-rule="evenodd" clip-rule="evenodd" d="M528.24 0V186H509.64V0H528.24ZM695.64 0V186H621.24V0H695.64ZM593.34 186V0H556.14V186H593.34Z" fill="black"/>
    </g>
    <path fill-rule="evenodd" clip-rule="evenodd" d="M175.072 31H233.43V155H175.072V31ZM379.323 31H437.681V155H379.323V31Z" fill="black"/>
    <path fill-rule="evenodd" clip-rule="evenodd" d="M116.715 31H175.072V155H116.715V31ZM320.966 31H379.323V155H320.966V31Z" fill="white"/>
    <path d="M291.788 0V62H262.609V0H87.5363V62H0V155H29.1788V93H87.5363V186H262.609V93H291.788V186H466.86V0H291.788ZM233.43 155H116.715V31H233.43V155ZM437.681 155H320.966V31H437.681V155Z" fill="black"/>
    <path d="M291.788 0V62H262.609V0H87.5363V62H0V155H29.1788V93H87.5363V186H262.609V93H291.788V186H466.86V0H291.788ZM233.43 155H116.715V31H233.43V155ZM437.681 155H320.966V31H437.681V155Z" fill="white"/>
    <path d="M291.788 0V62H262.609V0H87.5363V62H0V155H29.1788V93H87.5363V186H262.609V93H291.788V186H466.86V0H291.788ZM233.43 155H116.715V31H233.43V155ZM437.681 155H320.966V31H437.681V155Z" fill="#CCCCCC"/>
    <path d="M291.788 0V62H262.609V0H87.5363V62H0V155H29.1788V93H87.5363V186H262.609V93H291.788V186H466.86V0H291.788ZM233.43 155H116.715V31H233.43V155ZM437.681 155H320.966V31H437.681V155Z" fill="#00EDCF"/>
    <path d="M291.788 0V62H262.609V0H87.5363V62H0V155H29.1788V93H87.5363V186H262.609V93H291.788V186H466.86V0H291.788ZM233.43 155H116.715V31H233.43V155ZM437.681 155H320.966V31H437.681V155Z" fill="#20B0EC"/>
    <path d="M291.788 0V62H262.609V0H87.5363V62H0V155H29.1788V93H87.5363V186H262.609V93H291.788V186H466.86V0H291.788ZM233.43 155H116.715V31H233.43V155ZM437.681 155H320.966V31H437.681V155Z" fill="#0085FF"/>
    <defs>
        <clipPath id="clip0_7903_6847">
            <rect width="186" height="186" fill="white" transform="translate(509.64)"/>
        </clipPath>
    </defs>
</svg>
