<svg width="56" height="22" viewBox="0 0 56 22" fill="none" xmlns="http://www.w3.org/2000/svg">
<path fill-rule="evenodd" clip-rule="evenodd" d="M21 3.66663H28.0001V18.3333H21V3.66663ZM45.5 3.66663H52.5V18.3333H45.5V3.66663Z" fill="black"/>
<path fill-rule="evenodd" clip-rule="evenodd" d="M14 3.66663H20.9999V18.3333H14V3.66663ZM38.5 3.66663H45.4999V18.3333H38.5V3.66663Z" fill="white"/>
<path d="M35.0001 0V7.33333H31.5V0H10.5V7.33333H0V18.3333H3.50003V11H10.5V22H31.5001V11H35.0002V22H56V0H35.0001ZM28 18.3333H14V3.66667H28V18.3333ZM52.5 18.3333H38.5V3.66667H52.5V18.3333Z" fill="black"/>
<path d="M35.0001 0V7.33333H31.5V0H10.5V7.33333H0V18.3333H3.50003V11H10.5V22H31.5001V11H35.0002V22H56V0H35.0001ZM28 18.3333H14V3.66667H28V18.3333ZM52.5 18.3333H38.5V3.66667H52.5V18.3333Z" fill="white"/>
<path d="M35.0001 0V7.33333H31.5V0H10.5V7.33333H0V18.3333H3.50003V11H10.5V22H31.5001V11H35.0002V22H56V0H35.0001ZM28 18.3333H14V3.66667H28V18.3333ZM52.5 18.3333H38.5V3.66667H52.5V18.3333Z" fill="#CCCCCC"/>
<path d="M35.0001 0V7.33333H31.5V0H10.5V7.33333H0V18.3333H3.50003V11H10.5V22H31.5001V11H35.0002V22H56V0H35.0001ZM28 18.3333H14V3.66667H28V18.3333ZM52.5 18.3333H38.5V3.66667H52.5V18.3333Z" fill="#00EDCF"/>
<path d="M35.0001 0V7.33333H31.5V0H10.5V7.33333H0V18.3333H3.50003V11H10.5V22H31.5001V11H35.0002V22H56V0H35.0001ZM28 18.3333H14V3.66667H28V18.3333ZM52.5 18.3333H38.5V3.66667H52.5V18.3333Z" fill="#20B0EC"/>
<path d="M35.0001 0V7.33333H31.5V0H10.5V7.33333H0V18.3333H3.50003V11H10.5V22H31.5001V11H35.0002V22H56V0H35.0001ZM28 18.3333H14V3.66667H28V18.3333ZM52.5 18.3333H38.5V3.66667H52.5V18.3333Z" fill="#0085FF"/>
</svg>
