<svg width="110" height="110" viewBox="0 0 110 110" fill="none" xmlns="http://www.w3.org/2000/svg">
<path fill-rule="evenodd" clip-rule="evenodd" d="M89.0649 88.9754L89.0683 88.972C98.342 79.5963 103 68.2464 103 55.0329C103 41.8195 98.342 30.4695 89.0683 21.0939C79.7939 11.7176 68.5571 7 55.4674 7C42.3778 7 31.141 11.7176 21.8666 21.0939L21.8631 21.0974C12.6339 30.4737 8 41.8226 8 55.0329C8 68.2433 12.6339 79.5921 21.8631 88.9685L21.87 88.9754C31.1452 98.3068 42.381 103 55.4674 103C68.5539 103 79.7897 98.3068 89.0649 88.9754ZM81.5956 28.5785L81.6035 28.5866C88.9193 35.941 92.5512 44.7203 92.5512 55.0329C92.5512 65.3458 88.919 74.1493 81.5995 81.5492C74.3266 88.902 65.6516 92.5462 55.4674 92.5462C45.2847 92.5462 36.5871 88.9029 29.27 81.549C21.9955 74.1508 18.3837 65.3475 18.3837 55.0329C18.3837 44.7167 21.9965 35.9361 29.2702 28.5826C36.589 21.1833 45.2866 17.5197 55.4674 17.5197C65.6479 17.5197 74.3217 21.1829 81.5956 28.5785ZM64.5052 60.2598H86.8454V49.806H64.4999L75.6432 30.1218L66.5774 24.8996L55.4674 44.4632L44.3574 24.8996L35.2916 30.1218L46.435 49.806H24.1546V60.2598H46.4296L35.2893 79.8769L44.3527 85.0977L55.4674 65.6492L66.5822 85.0977L75.6456 79.8769L64.5052 60.2598Z" fill="#8AD9FA"/>
</svg>
