<svg width="110" height="110" viewBox="0 0 110 110" fill="none" xmlns="http://www.w3.org/2000/svg">
<path fill-rule="evenodd" clip-rule="evenodd" d="M89.4567 61.3667H108V49.6333H89.4636C88.6368 44.5851 86.7202 39.9139 83.7418 35.6478L96.8448 22.5448L88.4552 14.1552L75.3522 27.2582C71.0861 24.2798 66.4149 22.3632 61.3667 21.5364V3H49.6333V21.5433C44.4916 22.3831 39.8089 24.281 35.6269 27.2373L22.5448 14.1552L14.1552 22.5448L27.2582 35.6478C24.2798 39.9139 22.3632 44.5851 21.5364 49.6333H3V61.3667H21.5433C22.3832 66.5084 24.281 71.191 27.2373 75.3731L14.1552 88.4552L22.5448 96.8448L35.6269 83.7627C39.8089 86.719 44.4916 88.6168 49.6333 89.4567V108H61.3667V89.4636C66.4149 88.6368 71.0861 86.7202 75.3522 83.7418L88.4552 96.8448L96.8448 88.4552L83.7627 75.3731C86.719 71.191 88.6168 66.5084 89.4567 61.3667ZM55.5 78.3491C61.7324 78.3491 67.0386 76.1564 71.5888 71.6557C76.1333 67.1083 78.3491 61.7815 78.3491 55.5C78.3491 49.2763 76.1366 43.972 71.5823 39.4177C67.028 34.8634 61.7237 32.6509 55.5 32.6509C49.2763 32.6509 43.972 34.8634 39.4177 39.4177C34.8634 43.972 32.6509 49.2763 32.6509 55.5C32.6509 61.7817 34.8668 67.1086 39.4115 71.6561C43.9617 76.1565 49.2677 78.3491 55.5 78.3491Z" fill="#2A6DF0"/>
</svg>
