<svg width="472" height="110" viewBox="0 0 472 110" fill="none" xmlns="http://www.w3.org/2000/svg">
<path d="M10.4109 89.4386L10.4001 89.4271C5.45985 84.1629 3.14844 76.6281 3.14844 67.1584V64.7384C3.14844 60.3042 3.7598 56.294 5.02402 52.7384C6.28091 49.2034 8.10637 46.1668 10.5202 43.669C12.9282 41.104 15.8181 39.1808 19.1647 37.9039C22.5807 36.5553 26.3511 35.8984 30.4484 35.8984C34.2122 35.8984 37.6251 36.397 40.6584 37.4336C43.7141 38.453 46.3623 39.8842 48.5617 41.7543C50.8038 43.5989 52.5848 45.7789 53.8841 48.2887C55.2357 50.7594 56.1469 53.4235 56.6212 56.2696L57.0094 58.5984H39.848L39.3584 57.3077C38.6671 55.4853 37.6638 54.1165 36.3756 53.121L36.3354 53.09L36.2969 53.0569C35.2434 52.154 33.5748 51.5584 30.9984 51.5584C27.9784 51.5584 25.5188 52.5431 23.4921 54.5033C21.705 56.2986 20.5685 59.5312 20.5685 64.7384V67.1584C20.5685 70.0321 20.8487 72.3539 21.3626 74.1678C21.9534 75.9953 22.7084 77.4136 23.5867 78.482C24.5618 79.5067 25.6244 80.2322 26.7763 80.6955C28.0694 81.1858 29.4713 81.4384 30.9984 81.4384C33.5507 81.4384 35.2034 80.8183 36.2566 79.8654L36.2737 79.8499L36.2912 79.8348C37.5463 78.7509 38.5872 77.0981 39.3157 74.714L39.7483 73.2984H56.9708L56.6263 75.5951C56.1581 78.7166 55.2565 81.598 53.9074 84.223C52.6169 86.877 50.8417 89.1753 48.5936 91.1053C46.3894 93.061 43.7303 94.5384 40.6579 95.5635C37.6248 96.6 34.212 97.0984 30.4484 97.0984C22.1772 97.0984 15.4196 94.6089 10.4219 89.45L10.4109 89.4386Z" fill="black"/>
<path fill-rule="evenodd" clip-rule="evenodd" d="M66.1903 89.4616L66.1794 89.4504C61.0923 84.2018 58.6855 76.8537 58.6855 67.7084V65.2884C58.6855 60.7839 59.2961 56.7053 60.5566 53.0814L60.5629 53.0632L60.5696 53.0451C61.9028 49.4375 63.8036 46.3325 66.2891 43.7668L66.3001 43.7554L66.3113 43.7442C68.8635 41.192 71.8893 39.2456 75.3647 37.9028C78.86 36.5524 82.7775 35.8984 87.0855 35.8984C95.7645 35.8984 102.786 38.4058 107.871 43.6452C113.042 48.823 115.486 56.1434 115.486 65.2884V67.7084C115.486 72.2176 114.837 76.303 113.498 79.9338C112.235 83.5569 110.327 86.672 107.761 89.2415C105.27 91.8089 102.234 93.7564 98.6894 95.0967C95.1999 96.4438 91.3223 97.0984 87.0855 97.0984C78.4077 97.0984 71.3579 94.6292 66.2013 89.4727L66.1903 89.4616ZM95.0676 78.3509L95.0695 78.3489C96.9335 76.3101 98.0656 72.9043 98.0656 67.7084V65.2884C98.0656 60.2567 96.9412 56.9151 95.0695 54.868L95.0601 54.8576L95.0507 54.8472C93.132 52.6885 90.5513 51.5584 87.0855 51.5584C83.516 51.5584 80.8988 52.6727 78.9928 54.7566C77.209 56.7136 76.1056 60.0736 76.1056 65.2884V67.7084C76.1056 72.7262 77.2239 76.1193 79.1112 78.2494C81.0237 80.3354 83.6069 81.4384 87.0855 81.4384C90.6759 81.4384 93.247 80.3478 95.0676 78.3509Z" fill="black"/>
<path d="M123.014 14.9985H139.774V95.9985H123.014V14.9985Z" fill="black"/>
<path d="M151.159 14.9985H167.919V95.9985H151.159V14.9985Z" fill="black"/>
<path fill-rule="evenodd" clip-rule="evenodd" d="M182.958 89.4616L182.947 89.4504C177.86 84.2018 175.453 76.8537 175.453 67.7084V65.2884C175.453 60.7839 176.064 56.7053 177.324 53.0814L177.328 53.0698L177.332 53.0582C178.659 49.3915 180.514 46.2512 182.924 43.6806L182.935 43.6686L182.947 43.6569C185.431 41.0927 188.395 39.1724 191.814 37.8984C195.298 36.554 199.137 35.8984 203.303 35.8984C211.719 35.8984 218.587 38.4235 223.659 43.6565C228.757 48.9165 231.153 56.4212 231.153 65.8384V72.4584H192.553C193.056 75.8961 194.075 78.2173 195.415 79.6538C196.962 81.3107 199.456 82.3184 203.303 82.3184C206.397 82.3184 208.68 81.7821 210.296 80.8711C211.86 79.9899 212.915 78.6961 213.5 76.8844L213.947 75.4984H231.086L230.557 77.9243C229.217 84.0759 226.176 88.8988 221.391 92.2266C216.717 95.5278 210.82 97.0984 203.853 97.0984C195.175 97.0984 188.125 94.6292 182.969 89.4727L182.958 89.4616ZM195.768 53.1012L195.754 53.114C194.495 54.2827 193.467 56.1758 192.822 58.9984H213.824C213.224 56.1675 212.215 54.2777 210.962 53.114L210.948 53.1012L210.935 53.0881C209.379 51.5877 206.949 50.6784 203.303 50.6784C199.743 50.6784 197.344 51.5815 195.781 53.0881L195.768 53.1012Z" fill="black"/>
<path d="M242.12 89.4388L242.109 89.4273C237.169 84.1631 234.857 76.6283 234.857 67.1586V64.7386C234.857 60.3044 235.469 56.2942 236.733 52.7386C237.99 49.2035 239.815 46.1669 242.229 43.6691C244.637 41.1041 247.527 39.181 250.874 37.9042C254.29 36.5555 258.06 35.8986 262.157 35.8986C265.921 35.8986 269.334 36.3972 272.367 37.4338C275.423 38.4533 278.072 39.8845 280.271 41.7548C282.513 43.5994 284.294 45.7793 285.593 48.2891C286.175 49.3531 286.676 50.4528 287.095 51.5876V36.9986H296.995V21.5986H313.755V36.9986H327.395V52.6586H313.755V74.0886C313.755 74.6025 313.787 75.3154 313.859 76.2452C313.907 76.8778 314.101 77.5045 314.472 78.1409C314.791 78.6882 315.302 79.2316 316.088 79.7453C316.689 80.0736 317.744 80.3386 319.455 80.3386H328.495V95.9986H317.145C313.989 95.9986 311.216 95.6157 308.882 94.7821C306.647 93.9839 304.704 92.9224 303.096 91.5685L303.076 91.5512L303.056 91.5335C301.578 90.2197 300.393 88.7505 299.535 87.1201L299.525 87.1017L299.516 87.0831C298.736 85.5231 298.135 84.0091 297.728 82.5439L297.714 82.4935L297.702 82.4425C297.392 81.0447 297.19 79.7325 297.109 78.5117C297.035 77.3987 296.995 76.5027 296.995 75.8486V52.6586H287.463C287.835 53.8273 288.124 55.0313 288.33 56.2698L288.718 58.5986H271.557L271.067 57.3079C270.376 55.4855 269.373 54.1167 268.085 53.1212L268.044 53.0902L268.006 53.0571C266.952 52.1542 265.284 51.5586 262.707 51.5586C259.687 51.5586 257.228 52.5433 255.201 54.5033C253.414 56.2986 252.277 59.5313 252.277 64.7386V67.1586C252.277 70.0323 252.558 72.3542 253.072 74.1681C253.662 75.9955 254.417 77.4138 255.296 78.4821C256.271 79.5068 257.333 80.2324 258.485 80.6957C259.778 81.186 261.18 81.4386 262.707 81.4386C265.26 81.4386 266.912 80.8185 267.966 79.8656L267.983 79.8501L268 79.835C269.255 78.751 270.296 77.0983 271.025 74.7142L271.457 73.2986H288.68L288.335 75.5953C287.867 78.717 286.965 81.5985 285.616 84.2237C284.326 86.8774 282.551 89.1752 280.303 91.1051C278.099 93.061 275.44 94.5386 272.367 95.5637C269.334 96.6002 265.921 97.0986 262.157 97.0986C253.886 97.0986 247.129 94.6091 242.131 89.4502L242.12 89.4388Z" fill="black"/>
<path d="M350.643 36.9985V95.9985H333.883V36.9985H350.643Z" fill="black"/>
<path d="M334.909 31.503L334.876 31.4694C332.961 29.4631 332.013 26.9798 332.013 24.1484C332.013 21.3168 332.963 18.8502 334.909 16.9042C336.909 14.904 339.403 13.8984 342.263 13.8984C345.109 13.8984 347.574 14.8952 349.508 16.904C351.516 18.838 352.513 21.303 352.513 24.1484C352.513 27.0086 351.508 29.5024 349.507 31.5027C347.561 33.4487 345.095 34.3984 342.263 34.3984C339.432 34.3984 336.948 33.4502 334.942 31.5352L334.909 31.503Z" fill="black"/>
<path d="M353.989 36.9985H372.155L385.106 73.8584L397.459 36.9985H414.713L393.709 95.9985H376.173L353.989 36.9985Z" fill="black"/>
<path fill-rule="evenodd" clip-rule="evenodd" d="M420.145 89.4616L420.134 89.4504C415.047 84.2018 412.641 76.8537 412.641 67.7084V65.2884C412.641 60.7839 413.251 56.7053 414.512 53.0814L414.516 53.0698L414.52 53.0582C415.846 49.3915 417.702 46.2512 420.112 43.6806L420.123 43.6686L420.134 43.6569C422.618 41.0926 425.583 39.1723 429.002 37.8982C432.486 36.5539 436.324 35.8984 440.491 35.8984C448.906 35.8984 455.775 38.4235 460.847 43.6565C465.945 48.9165 468.341 56.4212 468.341 65.8384V72.4584H429.74C430.244 75.8961 431.262 78.2173 432.603 79.6538C434.149 81.3107 436.643 82.3184 440.491 82.3184C443.584 82.3184 445.867 81.7821 447.484 80.8711C449.047 79.9899 450.103 78.696 450.687 76.8844L451.134 75.4984H468.273L467.745 77.9243C466.404 84.0759 463.363 88.8988 458.578 92.2266C453.904 95.5278 448.008 97.0984 441.041 97.0984C432.363 97.0984 425.313 94.6292 420.156 89.4727L420.145 89.4616ZM432.955 53.1012L432.942 53.114C431.683 54.2827 430.655 56.1758 430.009 58.9984H451.012C450.411 56.1675 449.403 54.2777 448.15 53.114L448.136 53.1012L448.122 53.0881C446.566 51.5877 444.136 50.6784 440.491 50.6784C436.93 50.6784 434.531 51.5815 432.969 53.0881L432.955 53.1012Z" fill="black"/>
</svg>
