<svg width="411" height="110" viewBox="0 0 411 110" fill="none" xmlns="http://www.w3.org/2000/svg">
<path d="M11.2625 88.5402L11.2516 88.5286C6.31144 83.2645 4 75.7297 4 66.26V63.84C4 59.4057 4.61136 55.3956 5.87558 51.84C7.13248 48.305 8.95793 45.2684 11.3718 42.7706C13.7798 40.2055 16.6696 38.2823 20.0163 37.0055C23.4323 35.6569 27.2027 35 31.3 35C35.0637 35 38.4767 35.4985 41.51 36.5351C44.5657 37.5546 47.2139 38.9857 49.4133 40.8559C51.6553 42.7005 53.4364 44.8804 54.7357 47.3903C56.0873 49.8609 56.9984 52.5251 57.4728 55.3712L57.8609 57.7H40.6996L40.21 56.4093C39.5187 54.5868 38.5154 53.218 37.2271 52.2226L37.187 52.1915L37.1484 52.1585C36.095 51.2556 34.4263 50.66 31.85 50.66C28.8299 50.66 26.3704 51.6447 24.3436 53.6048C22.5565 55.4002 21.42 58.6328 21.42 63.84V66.26C21.42 69.1336 21.7003 71.4555 22.2142 73.2694C22.8049 75.0968 23.56 76.5152 24.4383 77.5835C25.4133 78.6083 26.476 79.3337 27.6279 79.7971C28.921 80.2874 30.3229 80.54 31.85 80.54C34.4022 80.54 36.0549 79.9199 37.1082 78.9669L37.1253 78.9514L37.1428 78.9364C38.3979 77.8524 39.4388 76.1996 40.1673 73.8156L40.5998 72.4H57.8224L57.4779 74.6967C57.0097 77.8182 56.1081 80.6995 54.759 83.3246C53.4685 85.9786 51.6933 88.2768 49.4451 90.2069C47.241 92.1625 44.5818 93.64 41.5095 94.665C38.4763 95.7015 35.0635 96.2 31.3 96.2C23.0288 96.2 16.2712 93.7105 11.2735 88.5516L11.2625 88.5402Z" fill="black"/>
<path d="M62.8372 36.1H76.4313L77.1787 40.5842C78.82 39.0835 80.5869 37.8978 82.484 37.0517C85.4506 35.6554 88.9411 35 92.8871 35H99.8372V50.66H91.2371C87.172 50.66 84.3679 51.7053 82.5087 53.5065L82.4969 53.5179L82.4849 53.5291C80.6241 55.2736 79.5972 57.7418 79.5972 61.2V95.1H62.8372V36.1Z" fill="black"/>
<path fill-rule="evenodd" clip-rule="evenodd" d="M107.218 88.5632L107.207 88.5519C102.12 83.3034 99.7129 75.9553 99.7129 66.81V64.39C99.7129 59.8854 100.323 55.8068 101.584 52.183L101.588 52.1713L101.592 52.1597C102.918 48.493 104.774 45.3528 107.184 42.7821L107.195 42.7702L107.206 42.7584C109.69 40.1943 112.654 38.2741 116.073 37C119.558 35.6556 123.396 35 127.563 35C135.979 35 142.847 37.525 147.919 42.7581C153.017 48.018 155.413 55.5228 155.413 64.94V71.56H116.812C117.316 74.9977 118.334 77.3189 119.675 78.7554C121.221 80.4123 123.715 81.42 127.563 81.42C130.657 81.42 132.94 80.8836 134.556 79.9727C136.119 79.0915 137.175 77.7976 137.759 75.986L138.207 74.6H155.346L154.817 77.0259C153.476 83.1775 150.436 88.0004 145.65 91.3281C140.977 94.6294 135.08 96.2 128.113 96.2C119.435 96.2 112.385 93.7308 107.229 88.5742L107.218 88.5632ZM120.028 52.2028L120.014 52.2156C118.755 53.3843 117.727 55.2774 117.081 58.1H138.084C137.484 55.2691 136.475 53.3792 135.222 52.2156L135.208 52.2028L135.195 52.1897C133.639 50.6892 131.209 49.78 127.563 49.78C124.003 49.78 121.604 50.6831 120.041 52.1897L120.028 52.2028Z" fill="black"/>
<path fill-rule="evenodd" clip-rule="evenodd" d="M165.799 88.7271L165.793 88.7206C161.223 83.6607 159.117 76.2325 159.117 66.81V64.39C159.117 55.0281 161.265 47.6337 165.915 42.5764L165.916 42.5754C170.583 37.5061 176.672 35 183.997 35C187.402 35 190.635 35.6344 193.675 36.9133C195.279 37.5719 196.742 38.3661 198.057 39.3V36.1H214.817V95.1H201.356L200.977 93.5851C200.897 93.2643 200.782 92.7657 200.635 92.1039L200.611 91.9983L200.599 91.8909C200.548 91.4313 200.477 90.9707 200.386 90.5089C195.919 94.3087 190.421 96.2 183.997 96.2C176.55 96.2 170.414 93.7471 165.805 88.7336L165.799 88.7271ZM195.051 53.8479L195.04 53.8361C193.199 51.7577 190.696 50.66 187.297 50.66C183.793 50.66 181.253 51.7427 179.425 53.7475C177.644 55.7005 176.537 59.0926 176.537 64.39V66.81C176.537 71.927 177.63 75.3076 179.434 77.3522C181.354 79.4456 183.905 80.54 187.297 80.54C190.795 80.54 193.332 79.4613 195.159 77.4635C196.957 75.4267 198.057 71.9812 198.057 66.7V64.28C198.057 59.2483 196.933 55.9067 195.061 53.8595L195.051 53.8479Z" fill="black"/>
<path d="M234.533 90.6528L234.513 90.635C233.035 89.3212 231.85 87.8521 230.992 86.2217L230.982 86.2033L230.973 86.1846C230.193 84.6247 229.592 83.1107 229.185 81.6455L229.171 81.5951L229.159 81.5441C228.849 80.1464 228.647 78.8342 228.566 77.6133C228.492 76.5001 228.452 75.6042 228.452 74.9502V51.7602H218.552V36.1002H228.452V20.7002H245.212V36.1002H258.852V51.7602H245.212V73.1902C245.212 73.7041 245.244 74.4171 245.316 75.3468C245.364 75.9793 245.558 76.606 245.929 77.2425C246.248 77.7898 246.759 78.3331 247.545 78.8469C248.146 79.1751 249.202 79.4402 250.912 79.4402H259.952V95.1002H248.602C245.446 95.1002 242.673 94.7172 240.339 93.8837C238.104 93.0855 236.161 92.024 234.553 90.67L234.533 90.6528Z" fill="black"/>
<path d="M282.1 36.1001V95.1001H265.34V36.1001H282.1Z" fill="black"/>
<path d="M266.366 30.6046L266.334 30.571C264.419 28.5647 263.47 26.0814 263.47 23.25C263.47 20.4183 264.42 17.9518 266.366 16.0058C268.366 14.0056 270.86 13 273.72 13C276.566 13 279.031 13.9967 280.965 16.0055C282.974 17.9396 283.97 20.4046 283.97 23.25C283.97 26.1101 282.965 28.604 280.965 30.6042C279.018 32.5502 276.552 33.5 273.72 33.5C270.889 33.5 268.406 32.5518 266.399 30.6367L266.366 30.6046Z" fill="black"/>
<path fill-rule="evenodd" clip-rule="evenodd" d="M297.14 88.5632L297.129 88.5519C292.042 83.3034 289.635 75.9553 289.635 66.81V64.39C289.635 59.8854 290.245 55.8068 291.506 52.183L291.512 52.1648L291.519 52.1467C292.852 48.539 294.753 45.4341 297.238 42.8684L297.249 42.857L297.261 42.8458C299.813 40.2936 302.839 38.3472 306.314 37.0044C309.809 35.654 313.727 35 318.035 35C326.714 35 333.735 37.5073 338.82 42.7465C343.991 47.9243 346.435 55.2448 346.435 64.39V66.81C346.435 71.3185 345.787 75.4035 344.448 79.0339C343.185 82.6575 341.277 85.7728 338.711 88.3425C336.22 90.9101 333.184 92.8578 329.639 94.1981C326.149 95.5454 322.272 96.2 318.035 96.2C309.357 96.2 302.307 93.7308 297.151 88.5742L297.14 88.5632ZM326.017 77.4525L326.019 77.4505C327.883 75.4117 329.015 72.0058 329.015 66.81V64.39C329.015 59.3583 327.89 56.0167 326.019 53.9695L326.009 53.9592L326 53.9487C324.081 51.7901 321.501 50.66 318.035 50.66C314.466 50.66 311.849 51.7741 309.943 53.8575C308.158 55.8144 307.055 59.1745 307.055 64.39V66.81C307.055 71.828 308.173 75.2211 310.061 77.3512C311.973 79.437 314.556 80.54 318.035 80.54C321.625 80.54 324.196 79.4494 326.017 77.4525Z" fill="black"/>
<path d="M353.413 36.1H366.982L367.758 40.3682C372.155 36.7915 377.418 35 383.463 35C390.563 35 396.375 37.1616 400.641 41.67C404.934 46.133 406.913 52.579 406.913 60.65V95.1H390.153V61.2C390.153 57.2988 389.227 54.7764 387.744 53.2383L387.731 53.2257L387.719 53.2128C386.212 51.5935 383.98 50.66 380.713 50.66C377.324 50.66 374.827 51.6548 372.997 53.4842C371.168 55.3136 370.173 57.811 370.173 61.2V95.1H353.413V36.1Z" fill="black"/>
</svg>
