<svg width="110" height="110" viewBox="0 0 110 110" fill="none" xmlns="http://www.w3.org/2000/svg">
<path d="M58.5894 46.89C61.121 48.2229 62.9661 50.1147 64.1247 52.5655C65.7123 52.3075 67.1068 51.8561 68.3083 51.2111C69.5526 50.5232 71.8053 48.8463 75.0664 46.1806C80.5158 42.053 85.0856 39.9891 88.7757 39.9891C92.6804 39.9891 96.0273 41.4295 98.8164 44.3103C101.605 47.148 103 50.6952 103 54.9518C103 59.0794 101.841 62.7771 99.5244 66.0448C97.2073 69.2695 93.6673 70.8819 88.9045 70.8819C87.0594 70.8819 85.0212 70.4734 82.79 69.6565C80.6016 68.8396 77.5551 66.8402 73.6504 63.6585C71.8482 62.0677 70.3464 60.9283 69.145 60.2403C67.9435 59.5094 66.2701 58.9719 64.1247 58.628C62.7516 61.3797 60.9494 63.1856 58.7182 64.0455C58.9327 65.3354 59.2974 66.6683 59.8123 68.0441C60.3701 69.377 61.6789 71.2903 63.7385 73.7841C66.9566 77.7398 69.0163 80.685 69.9173 82.6198C70.8184 84.5546 71.269 86.769 71.269 89.2627C71.269 93.4334 69.7457 96.7656 66.6992 99.2593C63.6956 101.753 59.984 103 55.5644 103C50.7586 103 47.0041 101.624 44.3008 98.8724C41.5976 96.1206 40.2459 92.8314 40.2459 89.0048C40.2459 86.468 40.8037 84.1247 41.9194 81.9749C43.0779 79.7821 45.2019 76.7938 48.2913 73.0102C50.8659 70.0005 52.3247 67.0982 52.668 64.3035C50.0935 62.7986 48.2055 60.8638 47.0041 58.499C44.1721 58.9289 41.0397 60.5628 37.607 63.4005C34.0027 66.2813 31.1707 68.2376 29.1111 69.2695C27.0515 70.2584 24.6271 70.7529 21.8381 70.7529C17.633 70.7529 14.2647 69.334 11.7331 66.4963C9.24435 63.6585 8 60.0683 8 55.7257C8 51.4691 9.28726 47.8359 11.8618 44.8262C14.4792 41.7735 17.8905 40.2471 22.0955 40.2471C26.3435 40.2471 31.2565 42.4614 36.8347 46.89C39.1089 48.6959 40.8681 49.9857 42.1125 50.7597C43.3568 51.5336 45.0303 52.0926 47.1328 52.4365C48.3771 50.0287 50.1793 48.2229 52.5393 47.019C52.0244 44.0953 49.9648 40.3116 46.3604 35.668C43.3139 31.6694 41.4903 28.9391 40.8896 27.4773C40.2888 25.9724 39.9885 24.0591 39.9885 21.7373C39.9885 17.8676 41.3401 14.6214 44.0434 11.9986C46.7895 9.33288 50.5869 8 55.4356 8C60.2843 8 64.0603 9.31138 66.7635 11.9341C69.5097 14.5569 70.8828 17.7816 70.8828 21.6083C70.8828 23.9301 70.4537 26.1229 69.5955 28.1867C68.7374 30.2505 66.9137 33.0453 64.1247 36.5709C60.7778 40.9136 58.9327 44.3532 58.5894 46.89Z" fill="#CDEE00"/>
</svg>
