<svg width="178" height="110" viewBox="0 0 178 110" fill="none" xmlns="http://www.w3.org/2000/svg">
<path fill-rule="evenodd" clip-rule="evenodd" d="M69.375 39.0625H89.5V79.3125H69.375V39.0625ZM139.812 39.0625H159.938V79.3125H139.812V39.0625Z" fill="black"/>
<path fill-rule="evenodd" clip-rule="evenodd" d="M49.25 39.0625H69.375V79.3125H49.25V39.0625ZM119.688 39.0625H139.812V79.3125H119.688V39.0625Z" fill="white"/>
<path d="M109.625 29V49.125H99.5625V29H39.1875V49.125H9V79.3125H19.0625V59.1875H39.1875V89.375H99.5625V59.1875H109.625V89.375H170V29H109.625ZM89.5 79.3125H49.25V39.0625H89.5V79.3125ZM159.938 79.3125H119.688V39.0625H159.938V79.3125Z" fill="black"/>
<path d="M109.625 29V49.125H99.5625V29H39.1875V49.125H9V79.3125H19.0625V59.1875H39.1875V89.375H99.5625V59.1875H109.625V89.375H170V29H109.625ZM89.5 79.3125H49.25V39.0625H89.5V79.3125ZM159.938 79.3125H119.688V39.0625H159.938V79.3125Z" fill="white"/>
<path d="M109.625 29V49.125H99.5625V29H39.1875V49.125H9V79.3125H19.0625V59.1875H39.1875V89.375H99.5625V59.1875H109.625V89.375H170V29H109.625ZM89.5 79.3125H49.25V39.0625H89.5V79.3125ZM159.938 79.3125H119.688V39.0625H159.938V79.3125Z" fill="#CCCCCC"/>
<path d="M109.625 29V49.125H99.5625V29H39.1875V49.125H9V79.3125H19.0625V59.1875H39.1875V89.375H99.5625V59.1875H109.625V89.375H170V29H109.625ZM89.5 79.3125H49.25V39.0625H89.5V79.3125ZM159.938 79.3125H119.688V39.0625H159.938V79.3125Z" fill="#FD791A"/>
<path d="M109.625 29V49.125H99.5625V29H39.1875V49.125H9V79.3125H19.0625V59.1875H39.1875V89.375H99.5625V59.1875H109.625V89.375H170V29H109.625ZM89.5 79.3125H49.25V39.0625H89.5V79.3125ZM159.938 79.3125H119.688V39.0625H159.938V79.3125Z" fill="#FD791A"/>
<path d="M109.625 29V49.125H99.5625V29H39.1875V49.125H9V79.3125H19.0625V59.1875H39.1875V89.375H99.5625V59.1875H109.625V89.375H170V29H109.625ZM89.5 79.3125H49.25V39.0625H89.5V79.3125ZM159.938 79.3125H119.688V39.0625H159.938V79.3125Z" fill="#FD791A"/>
<path d="M109.625 29V49.125H99.5625V29H39.1875V49.125H9V79.3125H19.0625V59.1875H39.1875V89.375H99.5625V59.1875H109.625V89.375H170V29H109.625ZM89.5 79.3125H49.25V39.0625H89.5V79.3125ZM159.938 79.3125H119.688V39.0625H159.938V79.3125Z" fill="#FD791A"/>
<path d="M109.625 29V49.125H99.5625V29H39.1875V49.125H9V79.3125H19.0625V59.1875H39.1875V89.375H99.5625V59.1875H109.625V89.375H170V29H109.625ZM89.5 79.3125H49.25V39.0625H89.5V79.3125ZM159.938 79.3125H119.688V39.0625H159.938V79.3125Z" fill="#FD791A"/>
<path d="M109.625 29V49.125H99.5625V29H39.1875V49.125H9V79.3125H19.0625V59.1875H39.1875V89.375H99.5625V59.1875H109.625V89.375H170V29H109.625ZM89.5 79.3125H49.25V39.0625H89.5V79.3125ZM159.938 79.3125H119.688V39.0625H159.938V79.3125Z" fill="#FD791A"/>
</svg>
