<svg width="104" height="110" viewBox="0 0 104 110" fill="none" xmlns="http://www.w3.org/2000/svg">
<path fill-rule="evenodd" clip-rule="evenodd" d="M9.50474 88.4631L9.49387 88.4519C4.40676 83.2032 2 75.8552 2 66.7099V64.2899C2 59.7853 2.61053 55.7067 3.87101 52.0829L3.87733 52.0647L3.88401 52.0466C5.21728 48.4389 7.11804 45.334 9.60352 42.7683L9.61456 42.7569L9.62579 42.7457C12.178 40.1935 15.2037 38.2471 18.6792 36.9043C22.1744 35.5539 26.092 34.8999 30.4 34.8999C39.079 34.8999 46.1004 37.4073 51.1852 42.6467C56.356 47.8244 58.8 55.1449 58.8 64.2899V66.7099C58.8 71.219 58.1516 75.3045 56.8126 78.9352C55.5497 82.5583 53.6415 85.6733 51.0755 88.2428C48.5849 90.8103 45.5488 92.758 42.0037 94.0982C38.5142 95.4453 34.6367 96.0999 30.4 96.0999C21.7222 96.0999 14.6724 93.6307 9.51579 88.4741L9.50474 88.4631ZM38.3821 77.3524L38.3839 77.3504C40.248 75.3116 41.38 71.9057 41.38 66.7099V64.2899C41.38 59.2582 40.2556 55.9166 38.3839 53.8694L38.3745 53.8591L38.3652 53.8486C36.4464 51.69 33.8658 50.5599 30.4 50.5599C26.8305 50.5599 24.2133 51.6742 22.3073 53.7581C20.5234 55.7151 19.42 59.075 19.42 64.2899V66.7099C19.42 71.7277 20.5384 75.1207 22.4256 77.2508C24.3381 79.3369 26.9214 80.4399 30.4 80.4399C33.9904 80.4399 36.5614 79.3493 38.3821 77.3524Z" fill="black"/>
<path d="M59.7285 51.66V36H69.6285V34.15C69.6285 27.9472 71.2612 22.8943 74.8259 19.3242C78.3847 15.6859 83.3624 14 89.4485 14H101.129V29.66H91.4285C89.4141 29.66 88.2647 30.1826 87.5947 30.884C86.9084 31.6025 86.3885 32.8593 86.3885 35.03V36H98.9285V51.66H86.3885V95H69.6285V51.66H59.7285Z" fill="black"/>
</svg>
