<svg width="583" height="110" viewBox="0 0 583 110" fill="none" xmlns="http://www.w3.org/2000/svg">
<path fill-rule="evenodd" clip-rule="evenodd" d="M2 25.9984H15.5943L16.3684 30.6433C20.8468 26.8076 26.3664 24.8984 32.82 24.8984C36.4846 24.8984 39.8605 25.521 42.9173 26.803C46.064 28.0185 48.747 29.8891 50.9382 32.4049C53.1282 34.9194 54.787 38.0317 55.9535 41.6847C57.1337 45.3069 57.7 49.5206 57.7 54.2884V56.7084C57.7 66.0811 55.5101 73.5075 50.7914 78.6331C46.191 83.6365 40.1342 86.0984 32.82 86.0984C29.4117 86.0984 26.1467 85.4629 23.0409 84.1888L23.0324 84.1853L23.0239 84.1817C21.4693 83.5272 20.0456 82.7399 18.76 81.817V106.998H2V25.9984ZM37.2733 43.7463L37.2628 43.7345C35.422 41.6562 32.9191 40.5584 29.52 40.5584C26.0345 40.5584 23.5005 41.6647 21.6672 43.7345L21.6577 43.7453L21.648 43.7559C19.8673 45.7089 18.76 49.1011 18.76 54.3984V56.8184C18.76 61.8537 19.8495 65.2021 21.6569 67.2507C23.5767 69.3441 26.128 70.4384 29.52 70.4384C33.0244 70.4384 35.5642 69.3557 37.3921 67.3509C39.1727 65.398 40.28 62.0058 40.28 56.7084V54.2884C40.28 49.1746 39.1518 45.8009 37.284 43.758L37.2733 43.7463Z" fill="black"/>
<path fill-rule="evenodd" clip-rule="evenodd" d="M68.939 78.4616L68.9281 78.4504C63.841 73.2018 61.4343 65.8537 61.4343 56.7084V54.2884C61.4343 49.7839 62.0448 45.7053 63.3053 42.0814L63.3116 42.0632L63.3183 42.0451C64.6516 38.4375 66.5523 35.3325 69.0378 32.7668L69.0488 32.7554L69.0601 32.7442C71.6122 30.192 74.638 28.2456 78.1135 26.9028C81.6088 25.5524 85.5263 24.8984 89.8343 24.8984C98.5133 24.8984 105.535 27.4058 110.62 32.6452C115.79 37.823 118.234 45.1434 118.234 54.2884V56.7084C118.234 61.2176 117.586 65.3031 116.247 68.9339C114.984 72.557 113.076 75.672 110.51 78.2415C108.019 80.8089 104.983 82.7565 101.438 84.0967C97.9486 85.4438 94.0711 86.0984 89.8343 86.0984C81.1565 86.0984 74.1067 83.6292 68.9501 78.4727L68.939 78.4616ZM97.8164 67.3509L97.8182 67.3489C99.6823 65.3101 100.814 61.9043 100.814 56.7084V54.2884C100.814 49.2567 99.6899 45.9151 97.8182 43.868L97.8088 43.8576L97.7995 43.8472C95.8807 41.6885 93.3001 40.5584 89.8343 40.5584C86.2648 40.5584 83.6476 41.6727 81.7416 43.7566C79.9577 45.7136 78.8543 49.0736 78.8543 54.2884V56.7084C78.8543 61.7262 79.9726 65.1193 81.8599 67.2494C83.7724 69.3354 86.3557 70.4384 89.8343 70.4384C93.4247 70.4384 95.9957 69.3478 97.8164 67.3509Z" fill="black"/>
<path d="M128.985 80.6617L128.97 80.648C124.776 76.9482 122.47 71.852 121.921 65.5727L121.73 63.3983H138.956L139.29 64.9863C139.823 67.5172 140.699 69.1136 141.729 70.052C142.659 70.8289 144.451 71.4283 147.563 71.4283C150.919 71.4283 152.695 70.9056 153.46 70.3285C154.293 69.6235 154.693 68.7684 154.693 67.5983C154.693 66.4914 154.276 65.7435 153.255 65.1402L153.209 65.1126L153.163 65.0824C151.843 64.2023 150.106 63.4338 147.901 62.8136C145.599 62.1661 143.109 61.5524 140.43 60.9732L140.405 60.9677L140.38 60.9617C137.53 60.2684 134.858 59.3019 132.368 58.0572L132.346 58.0462L132.325 58.0346C129.736 56.6595 127.539 54.8304 125.75 52.554L125.736 52.5363L125.723 52.5183C123.842 50.0107 123.013 46.7531 123.013 42.9583C123.013 40.4248 123.504 38.0501 124.511 35.863C125.524 33.5897 127.041 31.6566 129.032 30.0758C131.03 28.4156 133.474 27.1717 136.308 26.3056L136.316 26.3034L136.323 26.3013C139.266 25.4262 142.657 25.0083 146.463 25.0083C154.302 25.0083 160.491 26.6183 164.612 30.2351C168.629 33.7605 170.917 38.4978 171.551 44.2805L171.794 46.4983H154.581L154.203 44.9834C153.685 42.912 152.873 41.6397 151.934 40.8981L151.888 40.8619L151.844 40.8232C151.086 40.1489 149.473 39.5683 146.463 39.5683C143.531 39.5683 142.057 40.0607 141.454 40.5506C140.783 41.0958 140.433 41.7909 140.433 42.8483C140.433 43.8668 140.8 44.5228 141.69 45.0459C143.129 45.759 144.946 46.4025 147.168 46.9581C149.503 47.5418 152.021 48.1621 154.721 48.819C157.596 49.4431 160.292 50.4193 162.801 51.7521C165.419 53.1428 167.594 55.0692 169.31 57.5106C171.258 60.0965 172.113 63.4988 172.113 67.4883C172.113 70.1096 171.579 72.5935 170.504 74.9163C169.485 77.2004 167.927 79.1644 165.878 80.8076C163.874 82.4735 161.357 83.7503 158.395 84.6855L158.379 84.6906L158.363 84.6954C155.416 85.5715 151.988 85.9883 148.113 85.9883C139.846 85.9883 133.34 84.3463 129.001 80.6751L128.985 80.6617Z" fill="black"/>
<path d="M182.911 80.6617L182.895 80.648C178.702 76.9482 176.396 71.852 175.846 65.5727L175.656 63.3983H192.881L193.216 64.9863C193.749 67.5172 194.625 69.1136 195.655 70.052C196.585 70.8289 198.377 71.4283 201.489 71.4283C204.845 71.4283 206.621 70.9056 207.386 70.3285C208.219 69.6235 208.619 68.7684 208.619 67.5983C208.619 66.4914 208.202 65.7435 207.181 65.1402L207.134 65.1126L207.089 65.0824C205.769 64.2023 204.032 63.4338 201.827 62.8136C199.525 62.1661 197.035 61.5524 194.356 60.9732L194.331 60.9677L194.306 60.9617C191.456 60.2684 188.784 59.3019 186.294 58.0572L186.272 58.0462L186.25 58.0346C183.662 56.6595 181.465 54.8304 179.676 52.554L179.662 52.5363L179.649 52.5183C177.768 50.0107 176.939 46.7531 176.939 42.9583C176.939 40.4248 177.43 38.0501 178.437 35.863C179.45 33.5896 180.967 31.6565 182.958 30.0757C184.956 28.4155 187.4 27.1717 190.234 26.3056L190.241 26.3034L190.249 26.3013C193.192 25.4262 196.583 25.0083 200.389 25.0083C208.228 25.0083 214.416 26.6183 218.538 30.2351C222.555 33.7605 224.843 38.4978 225.477 44.2805L225.72 46.4983H208.507L208.128 44.9834C207.611 42.912 206.799 41.6397 205.859 40.8981L205.814 40.8619L205.77 40.8232C205.011 40.1489 203.399 39.5683 200.389 39.5683C197.457 39.5683 195.983 40.0607 195.38 40.5506C194.709 41.0958 194.359 41.7909 194.359 42.8483C194.359 43.8668 194.726 44.5228 195.616 45.0459C197.055 45.759 198.871 46.4025 201.094 46.9581C203.429 47.5418 205.946 48.1621 208.647 48.819C211.522 49.4431 214.218 50.4193 216.727 51.7521C219.345 53.1428 221.52 55.0692 223.236 57.5106C225.184 60.0965 226.039 63.4988 226.039 67.4883C226.039 70.1096 225.505 72.5935 224.429 74.9163C223.411 77.2004 221.853 79.1644 219.804 80.8076C217.8 82.4735 215.282 83.7503 212.321 84.6855L212.305 84.6906L212.289 84.6954C209.342 85.5715 205.914 85.9883 202.039 85.9883C193.771 85.9883 187.265 84.3463 182.927 80.6751L182.911 80.6617Z" fill="black"/>
<path d="M250.374 25.9985V84.9985H233.614V25.9985H250.374Z" fill="black"/>
<path d="M234.64 20.503L234.608 20.4694C232.693 18.4631 231.744 15.9798 231.744 13.1484C231.744 10.3168 232.694 7.85024 234.64 5.90422C236.64 3.90402 239.134 2.89844 241.994 2.89844C244.84 2.89844 247.305 3.89516 249.239 5.90397C251.248 7.83808 252.244 10.303 252.244 13.1484C252.244 16.0086 251.239 18.5024 249.239 20.5027C247.293 22.4487 244.826 23.3984 241.994 23.3984C239.163 23.3984 236.68 22.4502 234.673 20.5351L234.64 20.503Z" fill="black"/>
<path fill-rule="evenodd" clip-rule="evenodd" d="M261.209 3.99854H277.969V29.1799C279.255 28.257 280.678 27.4698 282.233 26.8153L282.241 26.8117L282.25 26.8082C285.356 25.534 288.621 24.8985 292.029 24.8985C295.694 24.8985 299.07 25.5211 302.126 26.8032C305.273 28.0187 307.956 29.8892 310.147 32.405C312.337 34.919 313.995 38.0305 315.162 41.6825C316.342 45.3052 316.909 49.5197 316.909 54.2885V56.7085C316.909 66.0812 314.719 73.5076 310 78.6332C305.4 83.6366 299.343 86.0985 292.029 86.0985C285.575 86.0985 280.056 84.1894 275.577 80.3537L274.803 84.9985H261.209V3.99854ZM296.482 43.7464L296.472 43.7346C294.631 41.6563 292.128 40.5585 288.729 40.5585C285.225 40.5585 282.685 41.6412 280.857 43.6461C279.073 45.6029 277.969 48.9631 277.969 54.1785V56.5985C277.969 61.7972 279.066 65.21 280.866 67.2508C282.786 69.3442 285.337 70.4385 288.729 70.4385C292.233 70.4385 294.773 69.3558 296.601 67.351C298.382 65.3981 299.489 62.0059 299.489 56.7085V54.2885C299.489 49.1747 298.361 45.801 296.493 43.7581L296.482 43.7464Z" fill="black"/>
<path d="M341.253 25.9985V84.9985H324.493V25.9985H341.253Z" fill="black"/>
<path d="M325.519 20.503L325.487 20.4694C323.572 18.4631 322.623 15.9799 322.623 13.1484C322.623 10.3167 323.573 7.85021 325.519 5.90422C327.519 3.90403 330.013 2.89844 332.873 2.89844C335.719 2.89844 338.184 3.89516 340.118 5.90397C342.127 7.83808 343.123 10.303 343.123 13.1484C343.123 16.0086 342.118 18.5024 340.118 20.5027C338.172 22.4487 335.705 23.3984 332.873 23.3984C330.042 23.3984 327.559 22.4502 325.552 20.5351L325.519 20.503Z" fill="black"/>
<path d="M352.638 3.99854H369.398V84.9985H352.638V3.99854Z" fill="black"/>
<path d="M397.542 25.9985V84.9985H380.782V25.9985H397.542Z" fill="black"/>
<path d="M381.808 20.503L381.776 20.4694C379.861 18.4631 378.912 15.9799 378.912 13.1484C378.912 10.3167 379.862 7.85021 381.808 5.90422C383.808 3.90403 386.302 2.89844 389.162 2.89844C392.008 2.89844 394.473 3.89516 396.407 5.90397C398.416 7.83808 399.412 10.303 399.412 13.1484C399.412 16.0086 398.407 18.5024 396.407 20.5027C394.461 22.4487 391.994 23.3984 389.162 23.3984C386.331 23.3984 383.848 22.4502 381.842 20.5351L381.808 20.503Z" fill="black"/>
<path d="M417.758 80.5512L417.738 80.5335C416.26 79.2197 415.075 77.7505 414.217 76.1201L414.207 76.1017L414.198 76.0831C413.418 74.5231 412.817 73.0092 412.41 71.5439L412.396 71.4935L412.385 71.4425C412.074 70.0448 411.873 68.7326 411.791 67.5117C411.717 66.3986 411.677 65.5027 411.677 64.8486V41.6586H401.777V25.9986H411.677V10.5986H428.437V25.9986H442.077V41.6586H428.437V63.0886C428.437 63.6025 428.47 64.3156 428.541 65.2452C428.59 65.8778 428.783 66.5044 429.155 67.1409C429.474 67.6882 429.985 68.2316 430.771 68.7453C431.371 69.0736 432.427 69.3386 434.137 69.3386H443.177V84.9986H431.827C428.672 84.9986 425.898 84.6157 423.564 83.7821C421.329 82.984 419.387 81.9224 417.779 80.5685L417.758 80.5512Z" fill="black"/>
<path d="M465.326 25.9985V84.9985H448.566V25.9985H465.326Z" fill="black"/>
<path d="M449.591 20.503L449.559 20.4694C447.644 18.4631 446.696 15.9799 446.696 13.1484C446.696 10.3167 447.645 7.85021 449.591 5.90422C451.592 3.90403 454.085 2.89844 456.946 2.89844C459.791 2.89844 462.256 3.89516 464.19 5.90397C466.199 7.83808 467.196 10.303 467.196 13.1484C467.196 16.0086 466.19 18.5024 464.19 20.5027C462.244 22.4487 459.777 23.3984 456.946 23.3984C454.114 23.3984 451.631 22.4502 449.625 20.5351L449.591 20.503Z" fill="black"/>
<path fill-rule="evenodd" clip-rule="evenodd" d="M480.365 78.4616L480.354 78.4504C475.267 73.2018 472.86 65.8537 472.86 56.7084V54.2884C472.86 49.7839 473.471 45.7053 474.731 42.0814L474.735 42.0698L474.739 42.0582C476.066 38.3915 477.921 35.2512 480.331 32.6806L480.342 32.6686L480.354 32.6568C482.838 30.0926 485.802 28.1723 489.221 26.8982C492.706 25.5539 496.544 24.8984 500.71 24.8984C509.126 24.8984 515.994 27.4234 521.066 32.6565C526.164 37.9165 528.56 45.4212 528.56 54.8384V61.4584H489.96C490.463 64.8961 491.482 67.2173 492.822 68.6538C494.369 70.3107 496.863 71.3184 500.71 71.3184C503.804 71.3184 506.087 70.7821 507.703 69.8711C509.267 68.9899 510.322 67.6961 510.907 65.8844L511.354 64.4984H528.493L527.964 66.9243C526.624 73.0751 523.584 77.8976 518.799 81.2253C514.125 84.5276 508.228 86.0984 501.26 86.0984C492.582 86.0984 485.533 83.6292 480.376 78.4727L480.365 78.4616ZM493.175 42.1012L493.161 42.114C491.902 43.2827 490.874 45.1758 490.229 47.9984H511.231C510.631 45.1675 509.622 43.2777 508.369 42.114L508.355 42.1012L508.342 42.0881C506.786 40.5877 504.356 39.6784 500.71 39.6784C497.15 39.6784 494.751 40.5815 493.188 42.0881L493.175 42.1012Z" fill="black"/>
<path d="M539.337 80.6617L539.321 80.648C535.128 76.9482 532.822 71.852 532.272 65.5727L532.082 63.3983H549.307L549.642 64.9863C550.174 67.5175 551.051 69.114 552.081 70.0523C553.011 70.829 554.803 71.4283 557.914 71.4283C561.27 71.4283 563.047 70.9056 563.812 70.3285C564.644 69.6235 565.044 68.7684 565.044 67.5983C565.044 66.4914 564.628 65.7435 563.607 65.1402L563.56 65.1126L563.515 65.0824C562.195 64.2023 560.458 63.4338 558.253 62.8136C555.951 62.1661 553.461 61.5524 550.782 60.9732L550.757 60.9677L550.732 60.9617C547.882 60.2684 545.209 59.3019 542.72 58.0572L542.698 58.0462L542.676 58.0346C540.088 56.6595 537.89 54.8304 536.102 52.554L536.088 52.5363L536.075 52.5183C534.194 50.0108 533.364 46.7531 533.364 42.9583C533.364 40.4251 533.855 38.0508 534.862 35.864C535.875 33.5905 537.392 31.6574 539.383 30.0764C541.381 28.4158 543.825 27.1719 546.66 26.3056L546.667 26.3034L546.674 26.3013C549.618 25.4262 553.009 25.0083 556.815 25.0083C564.653 25.0083 570.842 26.6183 574.964 30.2351C578.981 33.7605 581.269 38.4978 581.903 44.2805L582.146 46.4983H564.933L564.554 44.9834C564.036 42.912 563.225 41.6397 562.285 40.8981L562.239 40.8619L562.196 40.8232C561.437 40.1489 559.825 39.5683 556.815 39.5683C553.883 39.5683 552.409 40.0607 551.806 40.5506C551.135 41.0958 550.784 41.7909 550.784 42.8483C550.784 43.8668 551.152 44.5228 552.042 45.0458C553.481 45.7589 555.297 46.4025 557.52 46.9581C559.854 47.5418 562.372 48.1621 565.073 48.8191C567.948 49.4431 570.644 50.4193 573.153 51.7521C575.771 53.1429 577.946 55.0695 579.662 57.5112C581.609 60.0971 582.464 63.4992 582.464 67.4883C582.464 70.1093 581.931 72.5928 580.856 74.9154C579.837 77.1996 578.28 79.1636 576.23 80.807C574.226 82.4732 571.709 83.7501 568.747 84.6855L568.731 84.6906L568.714 84.6954C565.768 85.5715 562.339 85.9883 558.464 85.9883C550.197 85.9883 543.691 84.3463 539.353 80.6751L539.337 80.6617Z" fill="black"/>
</svg>
