<svg width="110" height="110" viewBox="0 0 110 110" fill="none" xmlns="http://www.w3.org/2000/svg">
<path d="M47.8955 17.5207C47.8955 15.5152 48.6349 13.7603 50.1135 12.2562C51.6344 10.7521 53.451 10 55.5634 10C57.5067 10 59.2389 10.7312 60.7598 12.1935C62.3229 13.6559 63.1045 15.4316 63.1045 17.5207C63.1045 19.568 62.3651 21.3228 60.8865 22.7851C59.4501 24.2475 57.6757 24.9787 55.5634 24.9787C53.2398 24.9787 51.3809 24.2266 49.9868 22.7225C48.5926 21.2183 47.8955 19.4844 47.8955 17.5207ZM29.7082 21.5317C29.7082 20.2365 30.1729 19.1084 31.1024 18.1474C32.074 17.1446 33.257 16.6433 34.6511 16.6433C36.003 16.6433 37.1648 17.1237 38.1365 18.0847C39.1082 19.0457 39.594 20.1947 39.594 21.5317C39.594 22.618 39.1715 23.7043 38.3266 24.7906C37.5239 25.877 36.2987 26.4201 34.6511 26.4201C33.257 26.4201 32.074 25.9396 31.1024 24.9787C30.1729 23.9759 29.7082 22.8269 29.7082 21.5317ZM71.406 21.5317C71.406 20.1947 71.8918 19.0457 72.8635 18.0847C73.8352 17.1237 74.997 16.6433 76.3489 16.6433C77.743 16.6433 78.9048 17.1446 79.8343 18.1474C80.7637 19.1084 81.2284 20.2365 81.2284 21.5317C81.2284 22.7016 80.7848 23.8088 79.8976 24.8533C79.0527 25.8978 77.8698 26.4201 76.3489 26.4201C74.8702 26.4201 73.6662 25.9187 72.7368 24.916C71.8496 23.9132 71.406 22.7851 71.406 21.5317ZM83.3196 34.1288C83.3196 32.6664 83.8055 31.4966 84.7772 30.6191C85.7911 29.7 86.9529 29.2404 88.2625 29.2404C89.6567 29.2404 90.8185 29.7208 91.7479 30.6818C92.7196 31.601 93.2054 32.75 93.2054 34.1288C93.2054 35.3822 92.7407 36.4894 91.8113 37.4504C90.8818 38.3696 89.6989 38.8292 88.2625 38.8292C86.7416 38.8292 85.5376 38.3278 84.6504 37.3251C83.7632 36.3223 83.3196 35.2569 83.3196 34.1288ZM17.7946 34.1288C17.7946 32.75 18.2593 31.601 19.1887 30.6818C20.1604 29.7208 21.3433 29.2404 22.7375 29.2404C24.1316 29.2404 25.2934 29.7 26.2228 30.6191C27.1945 31.5383 27.6804 32.7082 27.6804 34.1288C27.6804 35.424 27.2156 36.5312 26.2862 37.4504C25.3568 38.3696 24.1739 38.8292 22.7375 38.8292C21.3011 38.8292 20.1182 38.3696 19.1887 37.4504C18.2593 36.4894 17.7946 35.3822 17.7946 34.1288ZM36.4889 55.4373C36.4889 51.9695 37.3127 48.8359 38.9603 46.0365C40.6079 43.2371 42.8893 40.9601 45.8043 39.2052C48.7194 37.4504 51.9724 36.573 55.5634 36.573C60.7175 36.573 65.1746 38.4323 68.9345 42.1508C72.7368 45.8276 74.6379 50.2564 74.6379 55.4373C74.6379 60.5347 72.7579 64.9635 68.9979 68.7238C65.2802 72.4424 60.802 74.3017 55.5634 74.3017C50.2825 74.3017 45.7832 72.4633 42.0655 68.7865C38.3477 65.1097 36.4889 60.66 36.4889 55.4373ZM10 55.4373C10 53.39 10.7182 51.6352 12.1546 50.1729C13.6332 48.7105 15.471 47.9793 17.6678 47.9793C19.8224 47.9793 21.639 48.7314 23.1177 50.2355C24.5963 51.7397 25.3357 53.4736 25.3357 55.4373C25.3357 57.4428 24.5752 59.1977 23.0543 60.7018C21.5757 62.2059 19.7802 62.958 17.6678 62.958C15.5555 62.958 13.7389 62.2268 12.218 60.7645C10.7393 59.3021 10 57.5264 10 55.4373ZM85.6643 55.4373C85.6643 53.4736 86.4037 51.7397 87.8823 50.2355C89.361 48.7314 91.1776 47.9793 93.3322 47.9793C95.529 47.9793 97.3456 48.7105 98.782 50.1729C100.261 51.6352 101 53.39 101 55.4373C101 57.8607 100.176 59.7199 98.5285 61.0152C96.8809 62.3104 95.1488 62.958 93.3322 62.958C91.2198 62.958 89.4032 62.2059 87.8823 60.7018C86.4037 59.1977 85.6643 57.4428 85.6643 55.4373ZM83.3196 76.8712C83.3196 75.2835 83.8477 74.0719 84.9039 73.2362C86.0023 72.4006 87.1219 71.9828 88.2625 71.9828C89.5299 71.9828 90.6706 72.4424 91.6845 73.3616C92.6985 74.239 93.2054 75.4089 93.2054 76.8712C93.2054 78.2082 92.7196 79.3572 91.7479 80.3182C90.8185 81.2374 89.6567 81.697 88.2625 81.697C86.7839 81.697 85.5799 81.2165 84.6504 80.2555C83.7632 79.2528 83.3196 78.1247 83.3196 76.8712ZM17.7946 76.8712C17.7946 75.2835 18.3227 74.0719 19.3788 73.2362C20.4773 72.4006 21.5968 71.9828 22.7375 71.9828C24.0049 71.9828 25.1455 72.4215 26.1595 73.2989C27.1734 74.1763 27.6804 75.3671 27.6804 76.8712C27.6804 78.25 27.1945 79.399 26.2228 80.3182C25.2512 81.2374 24.0894 81.697 22.7375 81.697C21.3856 81.697 20.2238 81.2374 19.2521 80.3182C18.2804 79.3572 17.7946 78.2082 17.7946 76.8712ZM71.406 89.2803C71.406 87.9433 71.8918 86.7943 72.8635 85.8333C73.8352 84.8724 74.997 84.3919 76.3489 84.3919C77.743 84.3919 78.9048 84.8932 79.8343 85.896C80.7637 86.857 81.2284 87.9851 81.2284 89.2803C81.2284 90.7844 80.7215 91.9752 79.7075 92.8526C78.6936 93.73 77.5741 94.1687 76.3489 94.1687C74.828 94.1687 73.624 93.6674 72.7368 92.6646C71.8496 91.6618 71.406 90.5337 71.406 89.2803ZM29.7082 89.2803C29.7082 88.1104 30.1518 87.0032 31.039 85.9587C31.9262 84.9141 33.1302 84.3919 34.6511 84.3919C36.003 84.3919 37.1648 84.8724 38.1365 85.8333C39.1082 86.7943 39.594 87.9433 39.594 89.2803C39.594 90.6173 39.1293 91.7663 38.1999 92.7273C37.2704 93.6882 36.0875 94.1687 34.6511 94.1687C33.2147 94.1687 32.0318 93.6882 31.1024 92.7273C30.1729 91.7663 29.7082 90.6173 29.7082 89.2803ZM47.8955 93.4167C47.8955 91.3694 48.6137 89.5937 50.0501 88.0895C51.4865 86.5854 53.3243 85.8333 55.5634 85.8333C57.5912 85.8333 59.3445 86.5645 60.8231 88.0269C62.344 89.4892 63.1045 91.2858 63.1045 93.4167C63.1045 95.464 62.344 97.2397 60.8231 98.7438C59.3022 100.248 57.549 101 55.5634 101C53.4088 101 51.5922 100.248 50.1135 98.7438C48.6349 97.1979 47.8955 95.4222 47.8955 93.4167Z" fill="#DA72FF"/>
</svg>
