<svg width="110" height="110" viewBox="0 0 110 110" fill="none" xmlns="http://www.w3.org/2000/svg">
<path fill-rule="evenodd" clip-rule="evenodd" d="M7.95617 61.2641C8.29734 61.307 8.64088 61.3361 8.97694 61.3425C20.9456 62.3205 30.4006 66.4879 37.575 73.7052C44.9523 81.1255 48.682 90.5021 48.682 102.072V105.143L55.1155 104.993L61.4705 105.144V102.072C61.4705 90.5021 65.2004 81.1253 72.5777 73.705C79.751 66.4887 89.2329 62.3194 101.261 61.3421C101.56 61.3346 101.859 61.3047 102.146 61.2641H105.152L104.997 55.0722L105.147 49.0736L102.271 48.8867C89.7799 48.075 79.9675 43.8721 72.5775 36.4392C65.2002 29.019 61.4705 19.6423 61.4705 8.07222V5.0017L55.0371 5.15118L48.682 5V8.07222C48.682 19.6423 44.9523 29.019 37.575 36.4392C30.185 43.8721 20.3726 48.075 7.8817 48.8867L5.00508 49.0736L5.15517 55.0722L5.00024 61.2641H7.95617ZM48.9102 42.4273C44.8562 47.4774 39.571 51.692 33.1311 55.1058C39.5704 58.4745 44.8558 62.6666 48.9102 67.7171L48.9164 67.7249L48.9226 67.7327C51.3432 70.7895 53.3996 73.8164 55.0763 76.8137C56.7529 73.8164 58.8093 70.7895 61.2299 67.7327L61.2361 67.7249L61.2423 67.7171C65.2967 62.6666 70.5821 58.4745 77.0214 55.1058C70.5815 51.692 65.2963 47.4774 61.2423 42.4273L61.2361 42.4195L61.2299 42.4117C58.8093 39.355 56.7529 36.3281 55.0762 33.3307C53.3996 36.3281 51.3432 39.355 48.9226 42.4117L48.9164 42.4195L48.9102 42.4273Z" fill="#7311FF"/>
</svg>
