<svg width="166" height="110" viewBox="0 0 166 110" fill="none" xmlns="http://www.w3.org/2000/svg">
<path d="M17.9812 81.5526L17.9613 81.5348C16.4833 80.2211 15.2982 78.7519 14.4402 77.1215L14.4305 77.1031L14.4211 77.0844C13.6411 75.5245 13.04 74.0105 12.633 72.5453L12.619 72.4949L12.6076 72.4439C12.297 71.0461 12.0958 69.7339 12.0144 68.513C11.9402 67.3999 11.9 66.504 11.9 65.85V42.66H2V27H11.9V11.6H28.66V27H42.3V42.66H28.66V64.09C28.66 64.6039 28.6926 65.3169 28.7641 66.2466C28.8128 66.8791 29.0063 67.5058 29.3776 68.1423C29.6968 68.6896 30.2076 69.233 30.9937 69.7467C31.5944 70.075 32.6499 70.34 34.36 70.34H43.4V86H32.05C28.8947 86 26.1212 85.617 23.7873 84.7835C21.5524 83.9853 19.6095 82.9238 18.0017 81.5698L17.9812 81.5526Z" fill="black"/>
<path d="M48.2386 5H64.9987V29.803C68.7403 27.1901 73.1973 25.9 78.2886 25.9C85.3882 25.9 91.1997 28.0613 95.4654 32.5691C99.7592 37.0321 101.739 43.4785 101.739 51.55V86H84.9786V52.1C84.9786 48.1988 84.0522 45.6764 82.569 44.1383L82.5568 44.1257L82.5449 44.1128C81.0372 42.4935 78.8049 41.56 75.5386 41.56C72.1497 41.56 69.6523 42.5548 67.8229 44.3842C65.9935 46.2136 64.9987 48.7111 64.9987 52.1V86H48.2386V5Z" fill="black"/>
<path fill-rule="evenodd" clip-rule="evenodd" d="M115.715 79.4632L115.704 79.452C110.617 74.2033 108.21 66.8553 108.21 57.71V55.29C108.21 50.7854 108.821 46.7068 110.081 43.083L110.085 43.0713L110.089 43.0597C111.416 39.3931 113.271 36.2528 115.681 33.6821L115.692 33.6702L115.704 33.6584C118.188 31.0943 121.152 29.1741 124.571 27.9C128.055 26.5556 131.893 25.9 136.06 25.9C144.476 25.9 151.344 28.425 156.416 33.6581C161.514 38.918 163.91 46.4227 163.91 55.84V62.46H125.31C125.813 65.8977 126.832 68.2189 128.172 69.6554C129.719 71.3123 132.213 72.32 136.06 72.32C139.154 72.32 141.437 71.7836 143.053 70.8727C144.617 69.9915 145.672 68.6976 146.257 66.886L146.704 65.5H163.843L163.314 67.9259C161.974 74.0775 158.933 78.9004 154.148 82.2281C149.474 85.5294 143.577 87.1 136.61 87.1C127.932 87.1 120.883 84.6308 115.726 79.4742L115.715 79.4632ZM128.525 43.1028L128.511 43.1156C127.252 44.2843 126.224 46.1774 125.579 49H146.581C145.981 46.1691 144.972 44.2793 143.719 43.1156L143.705 43.1028L143.692 43.0897C142.136 41.5892 139.706 40.68 136.06 40.68C132.5 40.68 130.101 41.5831 128.538 43.0897L128.525 43.1028Z" fill="black"/>
</svg>
