<svg width="358" height="110" viewBox="0 0 358 110" fill="none" xmlns="http://www.w3.org/2000/svg">
<path d="M19.7164 87.2548L19.7071 87.2452C13.8147 81.1936 11 72.7471 11 62.2V14H28.2V61.65C28.2 68.201 29.7181 72.7148 32.3911 75.5742C35.0996 78.4718 38.8215 80 43.8 80C48.876 80 52.5868 78.4937 55.2079 75.6854L55.2089 75.6842C57.8787 72.8282 59.4 68.2812 59.4 61.65V14H76.6V62.2C76.6 67.3755 75.8398 72.0847 74.2812 76.2993C72.7993 80.5045 70.6009 84.1281 67.6729 87.1352C64.8158 90.0715 61.3391 92.3147 57.278 93.8767L57.2622 93.8827L57.2464 93.8885C53.1817 95.3737 48.6915 96.1 43.8 96.1C33.7951 96.1 25.685 93.2235 19.7258 87.2642L19.7164 87.2548Z" fill="black"/>
<path d="M86.9473 35.9999H100.516L101.292 40.2681C105.689 36.6914 110.952 34.8999 116.997 34.8999C124.097 34.8999 129.908 37.0612 134.174 41.569C138.468 46.032 140.447 52.4783 140.447 60.5499V94.9999H123.687V61.0999C123.687 57.1987 122.761 54.6763 121.278 53.1382L121.265 53.1256L121.253 53.1127C119.746 51.4934 117.514 50.5599 114.247 50.5599C110.858 50.5599 108.361 51.5547 106.531 53.3841C104.702 55.2135 103.707 57.711 103.707 61.0999V94.9999H86.9473V35.9999Z" fill="black"/>
<path d="M150.769 14H167.529V95H150.769V14Z" fill="black"/>
<path fill-rule="evenodd" clip-rule="evenodd" d="M182.568 88.4631L182.557 88.4519C177.47 83.2032 175.063 75.8552 175.063 66.7099V64.2899C175.063 59.7853 175.674 55.7067 176.934 52.0829L176.941 52.0647L176.947 52.0466C178.281 48.4389 180.181 45.334 182.667 42.7683L182.678 42.7569L182.689 42.7457C185.241 40.1935 188.267 38.2471 191.742 36.9043C195.238 35.5539 199.155 34.8999 203.463 34.8999C212.142 34.8999 219.164 37.4073 224.249 42.647C229.419 47.8247 231.863 55.145 231.863 64.2899V66.7099C231.863 71.2191 231.215 75.3046 229.876 78.9354C228.613 82.5584 226.705 85.6735 224.139 88.243C221.648 90.8104 218.612 92.758 215.067 94.0983C211.577 95.4453 207.7 96.0999 203.463 96.0999C194.785 96.0999 187.736 93.6307 182.579 88.4741L182.568 88.4631ZM211.445 77.3524L211.447 77.3504C213.311 75.3116 214.443 71.9057 214.443 66.7099V64.2899C214.443 59.2582 213.319 55.9166 211.447 53.8694L211.438 53.8591L211.428 53.8486C209.51 51.69 206.929 50.5599 203.463 50.5599C199.893 50.5599 197.275 51.6747 195.369 53.7594C193.586 55.7166 192.483 59.0763 192.483 64.2899V66.7099C192.483 71.7275 193.602 75.1205 195.489 77.2506C197.401 79.3368 199.985 80.4399 203.463 80.4399C207.054 80.4399 209.625 79.3493 211.445 77.3524Z" fill="black"/>
<path d="M242.804 88.4401L242.793 88.4285C237.853 83.1644 235.542 75.6295 235.542 66.1599V63.7399C235.542 59.3057 236.153 55.2955 237.417 51.7399C238.674 48.2048 240.5 45.1681 242.914 42.6703C245.322 40.1053 248.211 38.1822 251.558 36.9054C254.974 35.5568 258.744 34.8999 262.842 34.8999C266.606 34.8999 270.018 35.3984 273.052 36.435C276.108 37.4546 278.756 38.8858 280.955 40.7561C283.197 42.6007 284.978 44.7805 286.278 47.2904C287.629 49.761 288.54 52.425 289.015 55.2711L289.403 57.5999H272.241L271.752 56.3092C271.061 54.4867 270.057 53.1179 268.769 52.1225L268.729 52.0914L268.69 52.0584C267.637 51.1555 265.968 50.5599 263.392 50.5599C260.372 50.5599 257.912 51.5445 255.886 53.5046C254.098 55.2999 252.962 58.5326 252.962 63.7399V66.1599C252.962 69.0336 253.242 71.3555 253.756 73.1694C254.347 74.9967 255.102 76.415 255.98 77.4833C256.955 78.508 258.018 79.2335 259.169 79.6968C260.463 80.1872 261.865 80.4399 263.392 80.4399C265.944 80.4399 267.597 79.8198 268.65 78.8668L268.667 78.8513L268.685 78.8363C269.94 77.7523 270.981 76.0996 271.709 73.7155L272.142 72.2999H289.364L289.02 74.5966C288.551 77.7183 287.65 80.5998 286.301 83.2249C285.01 85.8786 283.235 88.1765 280.987 90.1064C278.783 92.0622 276.124 93.5398 273.051 94.5649C270.018 95.6014 266.605 96.0999 262.842 96.0999C254.571 96.0999 247.813 93.6104 242.815 88.4515L242.804 88.4401Z" fill="black"/>
<path d="M294.379 14H311.139V56.7286L326.616 36H346.546L327.191 62.1656L348.457 95H328.259L316.117 75.2046L311.139 81.7908V95H294.379V14Z" fill="black"/>
</svg>
