<svg width="29" height="29" viewBox="0 0 29 29" fill="none" xmlns="http://www.w3.org/2000/svg">
<path d="M29 14.5104C29 18.5099 27.5815 21.9282 24.7445 24.7652C21.9074 27.5884 18.4891 29 14.4896 29C10.4901 29 7.07182 27.5884 4.23479 24.7652C1.4116 21.9282 0 18.5099 0 14.5104C0 10.5109 1.4116 7.09258 4.23479 4.25555C7.07182 1.41852 10.4901 0 14.4896 0C18.4891 0 21.9074 1.41852 24.7445 4.25555C27.5815 7.09258 29 10.5109 29 14.5104ZM26.9449 14.5104C26.9449 11.0921 25.7201 8.16512 23.2706 5.72942C20.8349 3.27989 17.9079 2.05512 14.4896 2.05512C11.0713 2.05512 8.13744 3.27989 5.6879 5.72942C3.25221 8.16512 2.03436 11.0921 2.03436 14.5104C2.03436 17.9287 3.25221 20.8626 5.6879 23.3121C8.13744 25.7478 11.0713 26.9656 14.4896 26.9656C17.9079 26.9656 20.8349 25.7478 23.2706 23.3121C25.7201 20.8626 26.9449 17.9287 26.9449 14.5104ZM23.8518 15.5276H16.2749L20.053 22.1081L18.2677 23.1253L14.4896 16.5863L10.7115 23.1253L8.92627 22.1081L12.7044 15.5276H5.14817V13.4932H12.7044L8.92627 6.89191L10.7115 5.87473L14.4896 12.4553L18.2677 5.87473L20.053 6.89191L16.2749 13.4932H23.8518V15.5276Z" fill="#CDEE00"/>
</svg>
