<svg width="30" height="30" viewBox="0 0 30 30" fill="none" xmlns="http://www.w3.org/2000/svg">
<path d="M29 16.2068H29.5V15.7068V14.2932V13.7932H29H24.2778C24.078 12.1477 23.4632 10.6453 22.4402 9.29298L25.7738 5.95942L26.1273 5.60586L25.7738 5.25231L24.7477 4.22625L24.3941 3.8727L24.0406 4.22625L20.707 7.55981C19.3547 6.53677 17.8523 5.92196 16.2068 5.72223V1V0.5H15.7068H14.2932H13.7932V1V5.7239C12.1076 5.93187 10.6029 6.54254 9.2892 7.55604L5.95942 4.22625L5.60586 3.8727L5.25231 4.22625L4.22625 5.25231L3.8727 5.60586L4.22625 5.95942L7.55981 9.29298C6.53677 10.6453 5.92196 12.1477 5.72223 13.7932H1H0.5V14.2932V15.7068V16.2068H1H5.7239C5.93187 17.8924 6.54255 19.3971 7.55604 20.7108L4.22625 24.0406L3.8727 24.3941L4.22625 24.7477L5.25231 25.7738L5.60586 26.1273L5.95942 25.7738L9.2892 22.444C10.6029 23.4575 12.1076 24.0681 13.7932 24.2761V29V29.5H14.2932H15.7068H16.2068V29V24.2778C17.8523 24.078 19.3547 23.4632 20.707 22.4402L24.0406 25.7738L24.3941 26.1273L24.7477 25.7738L25.7738 24.7477L26.1273 24.3941L25.7738 24.0406L22.444 20.7108C23.4575 19.3971 24.0681 17.8924 24.2761 16.2068H29ZM19.9145 19.9354C18.5319 21.3034 16.9021 21.9788 15 21.9788C13.0979 21.9788 11.4681 21.3034 10.0855 19.9354C8.70374 18.5532 8.02117 16.9167 8.02117 15C8.02117 13.0992 8.70324 11.4697 10.0865 10.0865C11.4697 8.70324 13.0992 8.02117 15 8.02117C16.9008 8.02117 18.5303 8.70324 19.9135 10.0865C21.2968 11.4697 21.9788 13.0992 21.9788 15C21.9788 16.9167 21.2963 18.5532 19.9145 19.9354Z" fill="#00E37C" stroke="#00E37C"/>
</svg>
