<svg width="25" height="25" viewBox="0 0 25 25" fill="none" xmlns="http://www.w3.org/2000/svg">
<path d="M13.313 10.2342C13.9792 10.585 14.4648 11.0828 14.7696 11.7278C15.1874 11.6599 15.5544 11.5411 15.8706 11.3714C16.1981 11.1903 16.7909 10.749 17.6491 10.0475C19.0831 8.9613 20.2857 8.41819 21.2568 8.41819C22.2843 8.41819 23.1651 8.79724 23.8991 9.55533C24.633 10.3021 25 11.2356 25 12.3557C25 13.442 24.6951 14.415 24.0854 15.2749C23.4756 16.1236 22.544 16.5479 21.2906 16.5479C20.8051 16.5479 20.2687 16.4404 19.6816 16.2254C19.1057 16.0104 18.304 15.4843 17.2764 14.647C16.8022 14.2283 16.407 13.9285 16.0908 13.7475C15.7746 13.5551 15.3342 13.4137 14.7696 13.3231C14.4083 14.0473 13.9341 14.5225 13.3469 14.7488C13.4033 15.0883 13.4993 15.439 13.6348 15.8011C13.7816 16.1518 14.126 16.6554 14.668 17.3116C15.5149 18.3526 16.0569 19.1276 16.294 19.6368C16.5312 20.146 16.6497 20.7287 16.6497 21.3849C16.6497 22.4825 16.2489 23.3594 15.4472 24.0156C14.6567 24.6719 13.68 25 12.5169 25C11.2523 25 10.2642 24.6379 9.55285 23.9138C8.84146 23.1896 8.48577 22.3241 8.48577 21.317C8.48577 20.6495 8.63257 20.0328 8.92615 19.4671C9.23103 18.89 9.78997 18.1036 10.603 17.1079C11.2805 16.3159 11.6644 15.5522 11.7547 14.8167C11.0772 14.4207 10.5804 13.9115 10.2642 13.2892C9.51897 13.4024 8.69467 13.8323 7.79133 14.5791C6.84282 15.3372 6.09756 15.852 5.55556 16.1236C5.01355 16.3838 4.37556 16.5139 3.6416 16.5139C2.535 16.5139 1.6486 16.1405 0.982385 15.3938C0.327462 14.647 0 13.7022 0 12.5594C0 11.4392 0.338753 10.4831 1.01626 9.69111C1.70506 8.88776 2.60276 8.48608 3.70935 8.48608C4.82724 8.48608 6.12014 9.06879 7.58808 10.2342C8.18654 10.7094 8.6495 11.0489 8.97696 11.2525C9.30443 11.4562 9.74481 11.6033 10.2981 11.6938C10.6256 11.0602 11.0998 10.585 11.7209 10.2682C11.5854 9.49876 11.0434 8.50305 10.0949 7.28106C9.29313 6.22879 8.81323 5.5103 8.65515 5.12559C8.49706 4.72958 8.41802 4.22607 8.41802 3.61507C8.41802 2.59674 8.77371 1.74248 9.4851 1.05227C10.2078 0.350758 11.2071 0 12.4831 0C13.759 0 14.7527 0.345101 15.4641 1.0353C16.1868 1.7255 16.5481 2.57411 16.5481 3.58113C16.5481 4.19212 16.4352 4.76918 16.2093 5.31229C15.9835 5.8554 15.5036 6.59086 14.7696 7.51867C13.8889 8.66146 13.4033 9.56664 13.313 10.2342Z" fill="#AD74FF"/>
</svg>
