<svg width="30" height="30" viewBox="0 0 30 30" fill="none" xmlns="http://www.w3.org/2000/svg">
<path d="M12.493 2.47934C12.493 1.81818 12.7368 1.23967 13.2242 0.743802C13.7256 0.247934 14.3245 0 15.0209 0C15.6616 0 16.2326 0.241047 16.734 0.72314C17.2493 1.20523 17.507 1.79063 17.507 2.47934C17.507 3.15427 17.2632 3.73278 16.7758 4.21488C16.3022 4.69697 15.7173 4.93802 15.0209 4.93802C14.2549 4.93802 13.6421 4.69008 13.1825 4.19421C12.7228 3.69835 12.493 3.12672 12.493 2.47934ZM6.49721 3.80165C6.49721 3.37466 6.65042 3.00275 6.95682 2.68595C7.27716 2.35537 7.66713 2.19008 8.12674 2.19008C8.57242 2.19008 8.95543 2.34848 9.27577 2.66529C9.5961 2.98209 9.75627 3.36088 9.75627 3.80165C9.75627 4.15978 9.61699 4.51791 9.33844 4.87603C9.07382 5.23416 8.66992 5.41322 8.12674 5.41322C7.66713 5.41322 7.27716 5.25482 6.95682 4.93802C6.65042 4.60744 6.49721 4.22865 6.49721 3.80165ZM20.2437 3.80165C20.2437 3.36088 20.4039 2.98209 20.7242 2.66529C21.0446 2.34848 21.4276 2.19008 21.8733 2.19008C22.3329 2.19008 22.7159 2.35537 23.0223 2.68595C23.3287 3.00275 23.4819 3.37466 23.4819 3.80165C23.4819 4.18733 23.3357 4.55234 23.0432 4.89669C22.7646 5.24105 22.3747 5.41322 21.8733 5.41322C21.3858 5.41322 20.9889 5.24793 20.6825 4.91736C20.39 4.58678 20.2437 4.21488 20.2437 3.80165ZM24.1713 7.95455C24.1713 7.47245 24.3315 7.08678 24.6518 6.79752C24.9861 6.49449 25.3691 6.34298 25.8008 6.34298C26.2604 6.34298 26.6435 6.50138 26.9499 6.81818C27.2702 7.12121 27.4304 7.5 27.4304 7.95455C27.4304 8.36777 27.2772 8.73278 26.9708 9.04959C26.6643 9.35262 26.2744 9.50413 25.8008 9.50413C25.2994 9.50413 24.9025 9.33884 24.61 9.00826C24.3175 8.67769 24.1713 8.32645 24.1713 7.95455ZM2.56964 7.95455C2.56964 7.5 2.72284 7.12121 3.02925 6.81818C3.34958 6.50138 3.73955 6.34298 4.19916 6.34298C4.65877 6.34298 5.04178 6.49449 5.34819 6.79752C5.66852 7.10055 5.82869 7.48623 5.82869 7.95455C5.82869 8.38154 5.67549 8.74656 5.36908 9.04959C5.06267 9.35262 4.6727 9.50413 4.19916 9.50413C3.72563 9.50413 3.33565 9.35262 3.02925 9.04959C2.72284 8.73278 2.56964 8.36777 2.56964 7.95455ZM8.73259 14.9793C8.73259 13.8361 9.00418 12.803 9.54735 11.8802C10.0905 10.9573 10.8426 10.2066 11.8036 9.6281C12.7646 9.04959 13.837 8.76033 15.0209 8.76033C16.7201 8.76033 18.1894 9.37328 19.429 10.5992C20.6825 11.8113 21.3092 13.2713 21.3092 14.9793C21.3092 16.6598 20.6894 18.1198 19.4499 19.3595C18.2242 20.5854 16.7479 21.1983 15.0209 21.1983C13.2799 21.1983 11.7967 20.5923 10.571 19.3802C9.3454 18.168 8.73259 16.7011 8.73259 14.9793ZM0 14.9793C0 14.3044 0.236769 13.7259 0.710306 13.2438C1.19777 12.7617 1.80362 12.5207 2.52786 12.5207C3.23816 12.5207 3.83705 12.7686 4.32451 13.2645C4.81198 13.7603 5.05571 14.332 5.05571 14.9793C5.05571 15.6405 4.80501 16.219 4.30362 16.7149C3.81616 17.2107 3.22423 17.4587 2.52786 17.4587C1.83148 17.4587 1.23259 17.2176 0.731198 16.7355C0.243733 16.2534 0 15.668 0 14.9793ZM24.9443 14.9793C24.9443 14.332 25.188 13.7603 25.6755 13.2645C26.163 12.7686 26.7618 12.5207 27.4721 12.5207C28.1964 12.5207 28.7953 12.7617 29.2688 13.2438C29.7563 13.7259 30 14.3044 30 14.9793C30 15.7782 29.7284 16.3912 29.1852 16.8182C28.6421 17.2452 28.071 17.4587 27.4721 17.4587C26.7758 17.4587 26.1769 17.2107 25.6755 16.7149C25.188 16.219 24.9443 15.6405 24.9443 14.9793ZM24.1713 22.0455C24.1713 21.522 24.3454 21.1226 24.6936 20.8471C25.0557 20.5716 25.4248 20.4339 25.8008 20.4339C26.2187 20.4339 26.5947 20.5854 26.929 20.8884C27.2632 21.1777 27.4304 21.5634 27.4304 22.0455C27.4304 22.4862 27.2702 22.865 26.9499 23.1818C26.6435 23.4848 26.2604 23.6364 25.8008 23.6364C25.3134 23.6364 24.9164 23.478 24.61 23.1612C24.3175 22.8306 24.1713 22.4587 24.1713 22.0455ZM2.56964 22.0455C2.56964 21.522 2.74373 21.1226 3.09192 20.8471C3.45404 20.5716 3.82312 20.4339 4.19916 20.4339C4.61699 20.4339 4.99304 20.5785 5.3273 20.8678C5.66156 21.157 5.82869 21.5496 5.82869 22.0455C5.82869 22.5 5.66852 22.8788 5.34819 23.1818C5.02786 23.4848 4.64485 23.6364 4.19916 23.6364C3.75348 23.6364 3.37047 23.4848 3.05014 23.1818C2.7298 22.865 2.56964 22.4862 2.56964 22.0455ZM20.2437 26.1364C20.2437 25.6956 20.4039 25.3168 20.7242 25C21.0446 24.6832 21.4276 24.5248 21.8733 24.5248C22.3329 24.5248 22.7159 24.6901 23.0223 25.0207C23.3287 25.3375 23.4819 25.7094 23.4819 26.1364C23.4819 26.6322 23.3148 27.0248 22.9805 27.314C22.6462 27.6033 22.2772 27.7479 21.8733 27.7479C21.3719 27.7479 20.9749 27.5826 20.6825 27.2521C20.39 26.9215 20.2437 26.5496 20.2437 26.1364ZM6.49721 26.1364C6.49721 25.7507 6.64345 25.3857 6.93593 25.0413C7.22841 24.697 7.62535 24.5248 8.12674 24.5248C8.57242 24.5248 8.95543 24.6832 9.27577 25C9.5961 25.3168 9.75627 25.6956 9.75627 26.1364C9.75627 26.5771 9.60306 26.9559 9.29666 27.2727C8.99025 27.5895 8.60028 27.7479 8.12674 27.7479C7.6532 27.7479 7.26323 27.5895 6.95682 27.2727C6.65042 26.9559 6.49721 26.5771 6.49721 26.1364ZM12.493 27.5C12.493 26.8251 12.7298 26.2397 13.2033 25.7438C13.6769 25.2479 14.2827 25 15.0209 25C15.6894 25 16.2674 25.241 16.7549 25.7231C17.2563 26.2052 17.507 26.7975 17.507 27.5C17.507 28.1749 17.2563 28.7603 16.7549 29.2562C16.2535 29.7521 15.6755 30 15.0209 30C14.3106 30 13.7117 29.7521 13.2242 29.2562C12.7368 28.7466 12.493 28.1612 12.493 27.5Z" fill="#F99044"/>
</svg>
