<svg width="28" height="27" viewBox="0 0 28 27" fill="none" xmlns="http://www.w3.org/2000/svg">
<path d="M7.92529 27L6.39655 25.5077L12.4914 19.479L7.58333 14.6242L1.52874 20.6529L0 19.1805L6.09483 13.1518L0.724138 7.83935L2.21264 6.32719L7.60345 11.6595L12.4914 6.82461L7.12069 1.49226L8.60919 0L14 5.33235L19.3707 0.0198968L20.8793 1.49226L15.5086 6.80472L20.4167 11.6595L25.7672 6.34709L27.2759 7.81945L21.9052 13.1319L28 19.1606L26.5316 20.6529L20.3966 14.6242L15.5086 19.4591L21.6034 25.5077L20.1149 27L14 20.9514L7.92529 27ZM9.09195 13.1319L14 17.9867L18.908 13.1518L14 8.29698L9.09195 13.1319Z" fill="black"/>
<path d="M7.92529 27L6.39655 25.5077L12.4914 19.479L7.58333 14.6242L1.52874 20.6529L0 19.1805L6.09483 13.1518L0.724138 7.83935L2.21264 6.32719L7.60345 11.6595L12.4914 6.82461L7.12069 1.49226L8.60919 0L14 5.33235L19.3707 0.0198968L20.8793 1.49226L15.5086 6.80472L20.4167 11.6595L25.7672 6.34709L27.2759 7.81945L21.9052 13.1319L28 19.1606L26.5316 20.6529L20.3966 14.6242L15.5086 19.4591L21.6034 25.5077L20.1149 27L14 20.9514L7.92529 27ZM9.09195 13.1319L14 17.9867L18.908 13.1518L14 8.29698L9.09195 13.1319Z" fill="#DA72FF"/>
</svg>
