<svg viewBox="0 0 696 171" fill="none" xmlns="http://www.w3.org/2000/svg">
<path d="M0 34.2C0 15.3119 20.774 0 46.4 0H649.6C675.226 0 696 15.3119 696 34.2V136.8C696 155.688 675.226 171 649.6 171H46.4C20.774 171 0 155.688 0 136.8V34.2Z" fill="#A2DF73"/>
<path d="M163.383 65.26H145V55.855H192.025V65.26H173.643V115.705H163.383V65.26Z" fill="black"/>
<path d="M207.849 55.855H246.324V65.26H218.109V80.2225H241.194V89.6274H218.109V106.3H246.324V115.705H207.849V55.855Z" fill="black"/>
<path d="M284.355 116.56C276.774 116.56 271.045 114.764 267.17 111.173C263.35 107.582 261.241 102.538 260.843 96.0399H271.787C272.071 99.8019 273.211 102.595 275.207 104.419C277.201 106.243 280.251 107.155 284.355 107.155C288.288 107.155 291.11 106.443 292.82 105.017C294.53 103.592 295.385 101.683 295.385 99.2889C295.385 97.0659 294.558 95.3841 292.905 94.2444C291.252 93.1047 289.171 92.1642 286.664 91.4229C284.155 90.6252 281.448 89.8839 278.541 89.1999C275.634 88.4586 272.926 87.4326 270.419 86.1219C267.91 84.8112 265.83 83.044 264.177 80.821C262.524 78.598 261.698 75.577 261.698 71.758C261.698 69.364 262.153 67.1695 263.066 65.1745C263.977 63.1225 265.317 61.3555 267.084 59.8735C268.908 58.3345 271.131 57.1375 273.753 56.2825C276.432 55.4275 279.538 55 283.073 55C290.426 55 295.926 56.71 299.574 60.13C303.222 63.55 305.274 68.395 305.73 74.665H294.786C294.501 71.245 293.446 68.68 291.623 66.97C289.798 65.26 286.948 64.405 283.073 64.405C279.311 64.405 276.603 65.1175 274.95 66.5425C273.297 67.9105 272.471 69.6775 272.471 71.8435C272.471 74.1805 273.297 75.9475 274.95 77.1445C276.603 78.2845 278.683 79.225 281.192 79.966C283.699 80.707 286.407 81.4195 289.314 82.1035C292.221 82.7305 294.928 83.671 297.437 84.9249C299.944 86.1792 302.025 87.9456 303.678 90.2259C305.331 92.4489 306.158 95.4987 306.158 99.3744C306.158 101.882 305.701 104.191 304.79 106.3C303.935 108.409 302.595 110.233 300.771 111.772C298.947 113.254 296.667 114.422 293.931 115.277C291.195 116.132 288.003 116.56 284.355 116.56Z" fill="black"/>
<path d="M336.57 65.26H318.188V55.855H365.213V65.26H346.83V115.705H336.57V65.26Z" fill="black"/>
<path d="M381.037 55.855H395.572L419.341 101.17H419.512V55.855H429.772V115.705H416.092L391.468 68.68H391.297V115.705H381.037V55.855Z" fill="black"/>
<path d="M450.288 55.855H488.763V65.26H460.548V80.2225H483.633V89.6274H460.548V106.3H488.763V115.705H450.288V55.855Z" fill="black"/>
<path d="M521.614 65.26H503.232V55.855H550.257V65.26H531.874V115.705H521.614V65.26Z" fill="black"/>
</svg>
