<svg width="60" height="20" viewBox="0 0 60 20" fill="none" xmlns="http://www.w3.org/2000/svg">
<path d="M0 4C0 1.79086 1.79086 0 4 0H56C58.2091 0 60 1.79086 60 4V16C60 18.2091 58.2091 20 56 20H4C1.79086 20 0 18.2091 0 16V4Z" fill="#A2DF73"/>
<path d="M8.45005 7.79961H6.30005V6.69961H11.8V7.79961H9.65005V13.6996H8.45005V7.79961Z" fill="black"/>
<path d="M13.6508 6.69961H18.1508V7.79961H14.8508V9.54961H17.5508V10.6496H14.8508V12.5996H18.1508V13.6996H13.6508V6.69961Z" fill="black"/>
<path d="M22.5989 13.7996C21.7122 13.7996 21.0422 13.5896 20.5889 13.1696C20.1422 12.7496 19.8955 12.1596 19.8489 11.3996H21.1289C21.1622 11.8396 21.2955 12.1663 21.5289 12.3796C21.7622 12.5929 22.1189 12.6996 22.5989 12.6996C23.0589 12.6996 23.3889 12.6163 23.5889 12.4496C23.7889 12.2829 23.8889 12.0596 23.8889 11.7796C23.8889 11.5196 23.7922 11.3229 23.5989 11.1896C23.4055 11.0563 23.1622 10.9463 22.8689 10.8596C22.5755 10.7663 22.2589 10.6796 21.9189 10.5996C21.5789 10.5129 21.2622 10.3929 20.9689 10.2396C20.6755 10.0863 20.4322 9.87961 20.2389 9.61961C20.0455 9.35961 19.9489 9.00628 19.9489 8.55961C19.9489 8.27961 20.0022 8.02294 20.1089 7.78961C20.2155 7.54961 20.3722 7.34294 20.5789 7.16961C20.7922 6.98961 21.0522 6.84961 21.3589 6.74961C21.6722 6.64961 22.0355 6.59961 22.4489 6.59961C23.3089 6.59961 23.9522 6.79961 24.3789 7.19961C24.8055 7.59961 25.0455 8.16628 25.0989 8.89961H23.8189C23.7855 8.49961 23.6622 8.19961 23.4489 7.99961C23.2355 7.79961 22.9022 7.69961 22.4489 7.69961C22.0089 7.69961 21.6922 7.78294 21.4989 7.94961C21.3055 8.10961 21.2089 8.31628 21.2089 8.56961C21.2089 8.84294 21.3055 9.04961 21.4989 9.18961C21.6922 9.32294 21.9355 9.43294 22.2289 9.51961C22.5222 9.60628 22.8389 9.68961 23.1789 9.76961C23.5189 9.84294 23.8355 9.95294 24.1289 10.0996C24.4222 10.2463 24.6655 10.4529 24.8589 10.7196C25.0522 10.9796 25.1489 11.3363 25.1489 11.7896C25.1489 12.0829 25.0955 12.3529 24.9889 12.5996C24.8889 12.8463 24.7322 13.0596 24.5189 13.2396C24.3055 13.4129 24.0389 13.5496 23.7189 13.6496C23.3989 13.7496 23.0255 13.7996 22.5989 13.7996Z" fill="black"/>
<path d="M28.7059 7.79961H26.5559V6.69961H32.0559V7.79961H29.9059V13.6996H28.7059V7.79961Z" fill="black"/>
<path d="M33.9067 6.69961H35.6067L38.3867 11.9996H38.4067V6.69961H39.6067V13.6996H38.0067L35.1267 8.19961H35.1067V13.6996H33.9067V6.69961Z" fill="black"/>
<path d="M42.0063 6.69961H46.5063V7.79961H43.2063V9.54961H45.9063V10.6496H43.2063V12.5996H46.5063V13.6996H42.0063V6.69961Z" fill="black"/>
<path d="M50.3485 7.79961H48.1985V6.69961H53.6985V7.79961H51.5485V13.6996H50.3485V7.79961Z" fill="black"/>
</svg>
