<svg width="387" height="170" viewBox="0 0 387 170" fill="none" xmlns="http://www.w3.org/2000/svg">
<path d="M73.9733 66.1502L107.982 14.7579H77.8038V1.33746H125.195V13.7819L89.7777 67.2105H126.592V80.631H73.9902V66.1357L73.9757 66.1502H73.9733ZM125.572 41.4855C125.572 32.0413 126.968 24.2575 129.735 18.1485C132.516 12.0396 136.149 7.47774 140.647 4.49195C145.132 1.49169 150.566 0 156.966 0C166.228 0 173.773 3.55693 179.613 10.6587C185.439 17.7581 188.36 27.8723 188.36 40.9987C188.36 54.1251 185.272 64.6296 179.097 72.0929C173.677 78.691 166.313 81.9829 157.009 81.9829C147.705 81.9829 140.245 78.7199 134.822 72.2037C128.647 64.7404 125.559 54.501 125.572 41.4855ZM139.039 40.9408C139.039 50.0645 140.77 56.8988 144.222 61.4607C147.674 66.0225 151.948 68.3094 157.062 68.3094C162.176 68.3094 166.465 66.049 169.844 61.5281C173.226 57.0097 174.917 50.0621 174.917 40.6733C174.917 31.2846 173.269 24.6864 169.972 20.2788C166.689 15.8857 162.371 13.6807 157.048 13.6807C151.724 13.6807 147.392 15.8977 144.053 20.3343C140.701 24.7563 139.039 31.634 139.039 40.9384V40.9408ZM193.85 1.35192H221.358C228.384 1.35192 233.416 2.06283 236.431 3.48463C239.451 4.90644 241.924 7.37653 243.866 10.8925C245.807 14.4085 246.772 18.6209 246.772 23.5177C246.772 29.7254 245.291 34.7066 242.329 38.4997C239.379 42.2928 235.175 44.6665 229.714 45.6424C232.521 47.6522 234.825 49.8693 236.656 52.2695C238.487 54.6697 240.988 58.9665 244.145 65.1742L252.011 80.6454H236.419L226.959 63.3885C223.563 57.1518 221.245 53.2455 220.017 51.6695C218.787 50.0934 217.501 49.0186 216.133 48.4186C214.763 47.8185 212.585 47.5269 209.567 47.5269H206.871V80.631H193.85V1.35192ZM206.885 34.8728H216.579C222.504 34.8728 226.276 34.6078 227.883 34.0921C229.504 33.5619 230.804 32.516 231.81 30.9255C232.816 29.335 233.32 27.2288 233.32 24.5925C233.32 21.9561 232.816 20.0451 231.81 18.51C230.804 16.9749 229.448 15.9291 227.714 15.3435C226.484 14.9531 222.964 14.7434 217.11 14.7434H206.885V34.8728ZM298.858 80.6285L293.184 62.6752H267.268L261.916 80.6285H248.029L273.236 1.35192H287.082L313.027 80.6285H298.858ZM288.98 49.2548L280.038 19.8354L271.265 49.2548H288.98Z" fill="black"/>
<path d="M0 166.13C3.79913 165.621 6.2354 164.508 7.31122 162.79C8.38703 161.031 8.92735 156.987 8.92735 150.659V97.7384L7.67063 95.8057C6.32465 93.7357 5.17405 92.4657 4.21643 91.9958C3.28776 91.4873 1.88147 91.1957 0 91.1162V88.8895H15.7465L51.1447 146.673V106.53C51.1447 99.9266 50.397 95.6298 48.9015 93.6369C47.9149 92.3476 45.7319 91.5066 42.3501 91.1162V88.8895H63.9291V91.1162C60.4315 91.5861 58.099 92.6994 56.9315 94.4562C55.764 96.2154 55.1803 100.237 55.1803 106.53V169.704H53.61L12.9653 103.893V150.659C12.9653 157.223 13.6986 161.5 15.1628 163.493C16.1204 164.783 18.26 165.662 21.5791 166.13V168.299H0V166.13Z" fill="black"/>
<path d="M56.9677 166.13C60.3495 165.66 62.5325 164.879 63.5191 163.785C64.5346 162.652 65.0435 159.821 65.0435 155.288V101.9C65.0435 97.642 64.549 94.8683 63.5649 93.579C62.5783 92.2512 60.3784 91.4295 56.9677 91.1186V88.8919H105.78L106.093 106.122H103.758C102.982 100.809 101.817 97.3697 100.261 95.8081C98.705 94.2442 95.2364 93.4634 89.8525 93.4634H77.3817C76.0357 93.4634 75.1987 93.7574 74.8706 94.343C74.5715 94.89 74.422 95.9455 74.422 97.5071V124.29H88.5547C92.4721 124.29 94.971 123.529 96.0469 122.006C97.1227 120.483 97.9886 117.396 98.6496 112.747H100.804V140.525H98.6496C97.9597 135.877 97.0793 132.809 96.001 131.324C94.9252 129.801 92.4407 129.04 88.5523 129.04H74.4195V158.751C74.4195 161.134 74.9888 162.542 76.1249 162.97C77.29 163.399 80.7466 163.614 86.4875 163.614C92.7084 163.614 97.2988 162.734 100.261 160.978C103.221 159.18 105.884 154.864 108.247 148.027H110.804L106.634 168.303H56.9677V166.13Z" fill="black"/>
<path d="M156.751 88.8919L157.245 109.286H155.528C153.649 103.999 152.592 98.7192 150.918 96.8034C149.273 94.849 145.788 93.873 140.464 93.873H136.556V155.29C136.556 159.939 137.109 162.831 138.216 163.963C139.323 165.057 141.745 165.78 145.484 166.132V168.301H118.699V166.132C122.588 165.742 125.009 164.901 125.967 163.611C126.925 162.322 127.402 159.079 127.402 153.883V93.873H120.115C115.03 93.873 111.562 94.8298 109.707 96.7456C107.883 98.659 106.506 102.84 105.58 109.286H103.334L103.872 88.8919H156.751Z" fill="black"/>
<path d="M167.162 88.8919V91.1186C165.338 91.1957 164.036 91.4102 163.259 91.7644C161.882 92.4295 161.194 93.6393 161.194 95.3985C161.194 96.1793 161.269 96.9408 161.418 97.683C161.599 98.4252 161.853 99.3819 162.183 100.556L175.462 145.68L185.243 111.807L180.892 97.3312C180.084 94.6755 178.873 92.897 177.257 91.9982C176.299 91.4511 174.847 91.1572 172.905 91.1186V88.8919H197.49V91.1186C195.189 91.1572 193.601 91.3716 192.735 91.7644C191.358 92.4295 190.671 93.7959 190.671 95.866C190.671 96.5697 190.731 97.1938 190.849 97.7408C190.967 98.2493 191.269 99.3241 191.746 100.965L205.025 145.971L216.512 105.243C217.17 102.936 217.619 100.886 217.858 99.0879C218.007 98.0734 218.082 97.2516 218.082 96.6275C218.082 94.4008 217.274 92.8561 215.658 91.9982C214.761 91.4897 213.415 91.1981 211.62 91.1186V88.8919H229.834V91.1186C228.189 91.4319 226.932 91.9187 226.066 92.5838C224.511 93.7164 223.346 95.6708 222.569 98.4445L212.79 134.134L208.976 147.907L203.457 169.706H202.068L198.344 155.818L187.397 118.897L173.264 169.706H171.875L165.28 144.74L157.383 116.67C154.122 105.105 151.849 98.0156 150.564 95.3961C149.307 92.7404 147.334 91.3138 144.642 91.1186V88.8919H167.164H167.162Z" fill="black"/>
<path d="M270.732 97.8565C265.078 90.7451 258.109 87.1905 249.826 87.1905C241.543 87.1905 234.617 90.7258 228.963 97.7987C222.803 105.534 219.722 115.81 219.722 128.625C219.722 141.441 222.607 150.796 228.382 158.573C234.067 166.19 241.215 170 249.828 170C257.873 170 264.738 166.561 270.421 159.686C276.762 151.989 279.932 141.636 279.932 128.625C279.932 115.615 276.866 105.556 270.735 97.8589L270.732 97.8565ZM263.689 156.871C259.861 162.732 255.239 165.662 249.826 165.662C244.413 165.662 239.627 162.655 235.828 156.637C232.029 150.581 230.131 141.243 230.131 128.625C230.131 116.007 232.029 106.628 235.828 100.613C239.656 94.5574 244.324 91.5307 249.826 91.5307C255.328 91.5307 259.754 94.4418 263.643 100.262C267.534 106.084 269.475 115.538 269.475 128.625C269.475 141.713 267.548 150.972 263.689 156.871Z" fill="black"/>
<path d="M329.54 164.489C328.373 163.628 327.208 162.262 326.043 160.387L307.11 129.972C312.223 128.956 316.261 126.847 319.221 123.644C322.212 120.442 323.71 115.851 323.71 109.872C323.71 100.965 320.357 94.849 313.659 91.5283C310.13 89.7715 305.718 88.8919 300.423 88.8919H274.985V91.1186C278.306 91.4704 280.443 92.3091 281.401 93.6393C282.39 94.9286 282.882 97.683 282.882 101.903V153.883C282.882 158.883 282.448 162.069 281.58 163.436C280.714 164.802 278.516 165.701 274.985 166.132V168.301H300.515V166.132C297.044 165.742 294.786 164.961 293.739 163.787C292.721 162.575 292.215 159.744 292.215 155.29V131.674L297.328 131.38L319.221 168.301H334.027V166.132C332.203 165.898 330.708 165.351 329.54 164.491V164.489ZM292.215 127.218V97.6228C292.215 95.825 292.499 94.6924 293.066 94.2225C293.664 93.714 295.266 93.461 297.866 93.461C301.726 93.461 304.821 94.1454 307.153 95.5117C311.522 98.0517 313.705 102.797 313.705 109.752C313.705 116.706 311.268 121.902 306.391 124.519C303.549 126.003 298.824 126.902 292.215 127.216V127.218Z" fill="black"/>
<path d="M323.606 166.13C327.345 165.739 329.666 164.879 330.561 163.551C331.458 162.185 331.907 158.961 331.907 153.881V101.9C331.907 97.5649 331.4 94.7695 330.382 93.5212C329.396 92.2319 327.138 91.4319 323.606 91.1186V88.8919H349.807V91.1186C346.218 91.3523 343.9 92.1331 342.853 93.4634C341.806 94.7912 341.283 97.6059 341.283 101.903V126.517C346.937 120.227 351.556 114.875 355.148 110.46C361.578 102.45 364.794 97.3143 364.794 95.0466C364.794 93.4441 364.239 92.391 363.132 91.8825C362.056 91.374 360.515 91.121 358.51 91.121V88.8943H382.559V90.827C379.626 91.2174 377.31 91.9789 375.605 93.1115C373.931 94.2442 371.596 96.7263 368.605 100.553L351.156 122.88L372.554 153.061C376.531 158.647 379.24 162.144 380.673 163.551C382.111 164.918 384.219 165.817 387 166.248V168.299H358.915V166.13C361.458 166.012 363.178 165.759 364.075 165.368C364.972 164.939 365.421 164.118 365.421 162.908C365.421 162.243 365.122 161.228 364.524 159.859C363.954 158.493 363.043 156.91 361.786 155.112L344.38 130.146L341.283 133.604V155.288C341.283 159.741 341.792 162.575 342.809 163.785C343.856 164.956 346.114 165.739 349.585 166.13V168.299H323.606V166.13Z" fill="black"/>
</svg>
